<svg xmlns="http://www.w3.org/2000/svg" width="79.323" height="74.91" viewBox="0 0 79.323 74.91">
  <g id="Group_2704" data-name="Group 2704" transform="translate(-215.532 10.487)">
    <g id="Group_3096" data-name="Group 3096" transform="translate(215.532 -10.487)">
      <path id="Path_25866" data-name="Path 25866" d="M1371.5,4626.49l29.378,37.457L1371.5,4701.4h79.322v-74.91Z" transform="translate(-1371.499 -4626.49)" fill="#ffd100"/>
      <path id="Path_25867" data-name="Path 25867" d="M1374.493,4626.49h-3l29.964,37.457L1371.5,4701.4h3l29.964-37.454Z" transform="translate(-1371.496 -4626.49)" fill="#e3051b"/>
      <path id="Path_25868" data-name="Path 25868" d="M1515.823,4746.252a2.305,2.305,0,1,1,2.305-2.307,2.323,2.323,0,0,1-2.305,2.307m-16.141,0a2.305,2.305,0,1,1,2.307-2.307,2.323,2.323,0,0,1-2.307,2.307m20.752-12.681a1.179,1.179,0,0,1-1.026,1.152l-18.808,2.2a5.931,5.931,0,0,1,.234,1.262,2.7,2.7,0,0,1-.433,1.153h16.574a1.153,1.153,0,0,1,0,2.307h-18.446a1.162,1.162,0,0,1-1.154-1.153,9.256,9.256,0,0,1,1.1-2.469l-3.188-14.825h-3.676a1.153,1.153,0,1,1,0-2.307h4.611c1.208,0,1.244,1.441,1.425,2.307h21.635a1.16,1.16,0,0,1,1.152,1.152v9.224Z" transform="translate(-1452.884 -4689.817)"/>
      <path id="Path_25869" data-name="Path 25869" d="M1535.016,4688.3l-5.864,5.872a1.2,1.2,0,0,1-.819.333,1.156,1.156,0,0,1-.81-.333l-5.864-5.872a1.126,1.126,0,0,1-.343-.811,1.164,1.164,0,0,1,.343-.818l.668-.678a1.2,1.2,0,0,1,.819-.332,1.17,1.17,0,0,1,.81.332l2.648,2.648v-6.34a1.161,1.161,0,0,1,1.153-1.153h1.152a1.161,1.161,0,0,1,1.153,1.153v6.34l2.648-2.648a1.168,1.168,0,0,1,.811-.332,1.2,1.2,0,0,1,.819.332l.676.678a1.192,1.192,0,0,1,.333.818,1.151,1.151,0,0,1-.333.811" transform="translate(-1473.169 -4663.159)"/>
    </g>
  </g>
</svg>
