<svg xmlns="http://www.w3.org/2000/svg" width="68.572" height="68.57" viewBox="0 0 68.572 68.57">
  <g id="Group_3098" data-name="Group 3098" transform="translate(-1810.284 -1288.713)">
    <g id="Group_2708" data-name="Group 2708" transform="translate(1810.284 1288.713)" opacity="0.7">
      <path id="Path_25879" data-name="Path 25879" d="M5508.252,12805.533a6.179,6.179,0,0,1-6.171-6.172V12744.5a6.178,6.178,0,0,1,6.171-6.171h54.857a6.179,6.179,0,0,1,6.171,6.171v54.856a6.18,6.18,0,0,1-6.171,6.172Z" transform="translate(-5501.396 -12737.632)" fill="#999"/>
      <path id="Path_25880" data-name="Path 25880" d="M5561.715,12736.2h-54.858a6.877,6.877,0,0,0-6.857,6.855v54.858a6.877,6.877,0,0,0,6.857,6.856h54.858a6.878,6.878,0,0,0,6.857-6.856v-54.858a6.877,6.877,0,0,0-6.857-6.855m0,1.371a5.493,5.493,0,0,1,5.485,5.484v54.858a5.492,5.492,0,0,1-5.485,5.484h-54.858a5.492,5.492,0,0,1-5.485-5.484v-54.858a5.493,5.493,0,0,1,5.485-5.484h54.858" transform="translate(-5500 -12736.201)"/>
    </g>
    <path id="Path_25881" data-name="Path 25881" d="M5588.414,12814.9l-1.4,1.4a2.407,2.407,0,0,1-1.7.706,2.33,2.33,0,0,1-1.677-.706l-5.479-5.462v13.12a2.232,2.232,0,0,1-2.385,2.179H5573.4a2.231,2.231,0,0,1-2.385-2.179v-13.12l-5.48,5.462a2.344,2.344,0,0,1-3.354,0l-1.4-1.4a2.365,2.365,0,0,1-.708-1.679,2.406,2.406,0,0,1,.708-1.693l12.129-12.134a2.329,2.329,0,0,1,1.678-.688,2.406,2.406,0,0,1,1.7.688l12.13,12.134a2.473,2.473,0,0,1,.689,1.693,2.43,2.43,0,0,1-.689,1.679" transform="translate(-3730.017 -11489.418)"/>
  </g>
</svg>
