<svg xmlns="http://www.w3.org/2000/svg" width="82.286" height="82.286" viewBox="0 0 82.286 82.286">
  <path id="Path_25786" data-name="Path 25786" d="M194.969,13180.745a57.789,57.789,0,0,0-1.846,6.514q-.646,3.016-1.337,6.629-.743,3.921-1.311,8.282a49.539,49.539,0,0,0-.44,8.1q.029.809.121,1.672a9.325,9.325,0,0,0,.307,1.595,2.958,2.958,0,0,0,.63,1.165c.284.31,1.064.307,1.4.384a1.621,1.621,0,0,1,.6.2.677.677,0,0,1,.3.563,1.461,1.461,0,0,1-.745,1.153,8.325,8.325,0,0,1-2.474,1.053,5.312,5.312,0,0,1-1.945.045,3.459,3.459,0,0,1-1.853-.933,5.785,5.785,0,0,1-1.4-2.247,12.239,12.239,0,0,1-.635-3.812,55.627,55.627,0,0,1,.136-5.968,63.565,63.565,0,0,1,.812-6.443q.576-3.255,1.4-6.533a53.863,53.863,0,0,1,1.98-6.248l-.65,1.172q-1.125,2.008-2.256,4.61t-2.165,5.4q-1.031,2.8-2,5.734t-1.814,5.549l-.171.481-.375.078a2.418,2.418,0,0,1-2.712-1.265,9.386,9.386,0,0,1-.789-3.745,34.277,34.277,0,0,1,.148-4.751q.233-2.263.661-4.384t.986-4.155q.555-2.038,1.111-4.146-1.51,3.568-2.938,7.56t-2.825,8.124c-.929,2.756-1.972,5.45-2.7,8.207-.864,3.307-1.345,6.405-2.048,9.675a6.665,6.665,0,0,1-.461,1.583.9.9,0,0,1-.709.356.694.694,0,0,1-.144.008,1.859,1.859,0,0,1-1.368-.558,5.826,5.826,0,0,1-1.056-1.511,14.657,14.657,0,0,1-.751-2.564,20.145,20.145,0,0,1-.3-3.232,41.545,41.545,0,0,1,.219-5.783q.36-3.1.968-6.364t1.256-6.28q.648-3.016,1.144-5.037.553-2.109.987-4.046t.938-3.741q.5-1.8,1.127-3.669a34.375,34.375,0,0,1,1.56-3.836,21.783,21.783,0,0,0-3.81,4.165,44.747,44.747,0,0,0-3.357,5.435,36.122,36.122,0,0,0-2.379,5.556,13.473,13.473,0,0,0-.819,4.456,2.831,2.831,0,0,0,.636,2,.692.692,0,0,1-.141.474.876.876,0,0,1-.728.259,8.275,8.275,0,0,1-2.485-.571,5.843,5.843,0,0,1-1.424-.9,15.438,15.438,0,0,1-1.234,2.368,22.132,22.132,0,0,1-3.77,4.492,25.444,25.444,0,0,1-4.781,3.457,18.216,18.216,0,0,1-5.083,1.979,9.778,9.778,0,0,1-2.227.152,9.918,9.918,0,0,1-2.655-.432,6.955,6.955,0,0,1-2.27-1.154,2.634,2.634,0,0,1-1.016-2.1,3.872,3.872,0,0,1,1.434-3.032,15.343,15.343,0,0,1,3.653-2.446,32.651,32.651,0,0,1,4.648-1.854q2.485-.788,4.414-1.325c.539-.113.82.061.837.528a2.277,2.277,0,0,1-.428,1.279,1.952,1.952,0,0,1-.942.875,74.074,74.074,0,0,0-7.134,2.672,2.634,2.634,0,0,0-.589.252c-.267.144-.566.292-.9.45s-.647.319-.956.489a3.877,3.877,0,0,0-.646.427,2.268,2.268,0,0,0,1.108.235,6.4,6.4,0,0,0,1.1-.122,22.037,22.037,0,0,0,7.313-2.939,12.856,12.856,0,0,0,4.94-6.1c-.015-.429-.322-.823-.923-1.19a13.582,13.582,0,0,0-2.2-1.041c-.871-.331-1.783-.639-2.735-.932s-1.791-.574-2.511-.849q-1.146-.4-2.518-.978a13.225,13.225,0,0,1-2.532-1.391,9.3,9.3,0,0,1-1.98-1.862,3.984,3.984,0,0,1-.868-2.388,7,7,0,0,1,.357-2.391,11.276,11.276,0,0,1,1.048-2.345,25.167,25.167,0,0,1,4.725-6.022,38.946,38.946,0,0,1,6.271-4.837,44.3,44.3,0,0,1,7.008-3.549,43.41,43.41,0,0,1,6.993-2.162,3.8,3.8,0,0,1,3.745,1.067,5.01,5.01,0,0,1,.693.977,2.574,2.574,0,0,1,.325,1.181,4.594,4.594,0,0,1-.556,2.045,27.405,27.405,0,0,1-1.391,2.509q-.8,1.3-1.734,2.554t-1.531,2.025q-1.568,2.005-3.194,3.954a37.1,37.1,0,0,1-3.455,3.624,1.385,1.385,0,0,1-.739.412,1.489,1.489,0,0,1-1.429-.435,2.211,2.211,0,0,1-.653-1.563,2.9,2.9,0,0,1,.448-1.571q.356-.652.979-1.686t1.218-2.023c.395-.663.773-1.242,1.133-1.75s.6-.768.725-.795a.852.852,0,0,1,.5.052,4.422,4.422,0,0,0,.51.181,11.456,11.456,0,0,0,2.139-2.605,18.142,18.142,0,0,0,1.5-3.046,21.107,21.107,0,0,0-4.676,2.02,40.735,40.735,0,0,0-5.033,3.383,53.222,53.222,0,0,0-4.664,4.105,30.989,30.989,0,0,0-3.563,4.128,1.218,1.218,0,0,0-.236.5,2.061,2.061,0,0,0,.838,1.46,9.537,9.537,0,0,0,1.994,1.277q1.181.584,2.521,1.133c.893.367,1.679.694,2.359.975q.831.4,2.045.979a18.352,18.352,0,0,1,2.34,1.332,9.467,9.467,0,0,1,1.3,1.07c.225-.625.483-1.274.815-1.977a41.727,41.727,0,0,1,4.065-6.765,36.465,36.465,0,0,1,5.412-5.947,12.8,12.8,0,0,1,5.509-3.125,8.423,8.423,0,0,1,1.345-.139,11.3,11.3,0,0,1,1.387-.028,4.806,4.806,0,0,1,1.177.2c.38.116.573.3.583.542a8.645,8.645,0,0,1-.277,1.055c-.114.345-.278.759-.49,1.247s-.506,1.1-.878,1.847-.682,1.67-1.195,2.868l.706-1.33a45.825,45.825,0,0,0,2.142-4.293,5.917,5.917,0,0,1,.494-1.137,2.569,2.569,0,0,1,.2.29,1.5,1.5,0,0,1,.278.79,3.34,3.34,0,0,1-.129.763q-.142.548-.366,1.223c-.154.451-.25.735-.4,1.209s-.551,1.5-.7,1.822c-.539,1.3-.835,2.064-1.249,3.334s-.83,2.609-1.242,4.026-.9,2.9-1.255,4.508a47.834,47.834,0,0,0-.81,5.258c.307-.7.414-1.1.768-2.018.156-.405.439-1.09.446-1.1.311-.655.425-.988.922-2.238s1.048-2.62,1.647-4.074,1.226-2.954,1.883-4.5,1.31-2.946,1.957-4.214a23.337,23.337,0,0,1,1.9-3.171,3.309,3.309,0,0,1,1.677-1.425,2.073,2.073,0,0,1,1.167.156,2.991,2.991,0,0,1,.9.487,4.243,4.243,0,0,1,1.074,1.1,2.656,2.656,0,0,1,.455,1.378,1.723,1.723,0,0,1-.1.759q-.621,1.978-1.123,3.743t-.946,3.483q-.444,1.717-.882,3.544a26.868,26.868,0,0,0-.576,4.168q1.732-4.352,3.518-7.979t3.863-7.166a.778.778,0,0,1,.551-.412,2.576,2.576,0,0,1,1.448.135,5.324,5.324,0,0,1,1.407.772,4.395,4.395,0,0,1,1.078,1.171,2.683,2.683,0,0,1,.453,1.344,2.905,2.905,0,0,1-.1.61m-34.5,15.815a6.861,6.861,0,0,1-.311-2.359,18.807,18.807,0,0,1,1.163-5.5,16.683,16.683,0,0,0-1.606,5.634,2.816,2.816,0,0,0,.754,2.222m5.674-43.659a41.143,41.143,0,1,0,41.143,41.144,41.144,41.144,0,0,0-41.143-41.144" transform="translate(-125 -13152.898)" fill="#fc0"/>
</svg>
