<svg xmlns="http://www.w3.org/2000/svg" width="39.973" height="39.975" viewBox="0 0 39.973 39.975">
  <g id="logout_1_" data-name="logout (1)" transform="translate(-0.014 44)">
    <g id="Group_2824" data-name="Group 2824" transform="translate(0.014 -44)">
      <g id="Group_2823" data-name="Group 2823" transform="translate(0)">
        <path id="Path_26070" data-name="Path 26070" d="M315.208,155.364a1.684,1.684,0,0,0-.361-.543l-5-5a1.665,1.665,0,1,0-2.355,2.355l2.154,2.154h-9.3a1.666,1.666,0,0,0,0,3.331h9.3L307.5,159.82a1.665,1.665,0,1,0,2.355,2.355l5-5a1.649,1.649,0,0,0,.361-.543A1.667,1.667,0,0,0,315.208,155.364Z" transform="translate(-275.361 -137.679)" fill="#ffd100"/>
        <path id="Path_26071" data-name="Path 26071" d="M28.329,23.319a1.665,1.665,0,0,0-1.666,1.666v8.328H20V6.662a1.668,1.668,0,0,0-1.188-1.6L13.029,3.331H26.664v8.328a1.666,1.666,0,0,0,3.331,0V1.666A1.665,1.665,0,0,0,28.329,0H1.68a1.484,1.484,0,0,0-.172.032A1.645,1.645,0,0,0,.8.278C.765.3.72.3.685.33.672.34.667.358.654.368A1.65,1.65,0,0,0,.211.894a1.36,1.36,0,0,0-.047.14,1.58,1.58,0,0,0-.132.39,1.037,1.037,0,0,0,0,.145c0,.033-.023.063-.023.1V34.978A1.664,1.664,0,0,0,1.353,36.61l16.656,3.331a1.55,1.55,0,0,0,.326.033A1.667,1.667,0,0,0,20,38.309V36.644h8.328a1.665,1.665,0,0,0,1.666-1.666V24.984A1.665,1.665,0,0,0,28.329,23.319Z" transform="translate(-0.014)" fill="#ffd100"/>
      </g>
    </g>
  </g>
</svg>
