<svg xmlns="http://www.w3.org/2000/svg" width="103.594" height="79.422" viewBox="0 0 103.594 79.422">
  <g id="pizza_3_" data-name="pizza (3)" transform="translate(-16 -71.999)">
    <path id="Path_26145" data-name="Path 26145" d="M119.088,82.864,108.728,72.5a1.726,1.726,0,0,0-1.221-.5H48.8a1.686,1.686,0,0,0-1.657,1.253h0l-1.48,5.18,3.32.949.674-2.358L51.037,78.4l2.442-2.442-.506-.506h52.246l-1.973,6.906H79.883v3.453h22.376L92.035,121.595a1.727,1.727,0,0,0,.439,1.7l7.412,7.412H17.727A1.727,1.727,0,0,0,16,132.429v17.266a1.727,1.727,0,0,0,1.727,1.727h86.328a1.727,1.727,0,0,0,1.727-1.727V132.671l13.746-48.111A1.727,1.727,0,0,0,119.088,82.864ZM19.453,134.155H74.7v13.812H19.453Zm82.875,13.812H78.156V134.155h24.172Zm.873-18.835-7.566-7.566,12.727-44.545,7.566,7.566Z" transform="translate(0)" fill="#ffd100"/>
    <path id="Path_26146" data-name="Path 26146" d="M130.7,165.351a29.351,29.351,0,1,0-58.7,0,29.072,29.072,0,0,0,2.952,12.842l3.1-1.513a25.9,25.9,0,1,1,46.592,0l3.1,1.513A29.072,29.072,0,0,0,130.7,165.351Z" transform="translate(-43.914 -50.188)" fill="#ffd100"/>
    <path id="Path_26147" data-name="Path 26147" d="M53.629,157.981a31.078,31.078,0,1,1,57.8,0l3.21,1.273a34.531,34.531,0,1,0-64.223,0Z" transform="translate(-25.094 -31.368)" fill="#ffd100"/>
    <path id="Path_26148" data-name="Path 26148" d="M119.539,192.633v-6.906A1.727,1.727,0,0,0,117.812,184,13.828,13.828,0,0,0,104,197.812a1.727,1.727,0,0,0,1.727,1.727h6.906a1.727,1.727,0,0,0,1.727-1.727,3.457,3.457,0,0,1,3.453-3.453,1.727,1.727,0,0,0,1.727-1.727Zm-3.453-1.508a6.933,6.933,0,0,0-4.961,4.961H107.6a10.387,10.387,0,0,1,8.489-8.489Z" transform="translate(-69.008 -87.829)" fill="#ffd100"/>
    <path id="Path_26149" data-name="Path 26149" d="M263.539,213.812A13.828,13.828,0,0,0,249.727,200,1.727,1.727,0,0,0,248,201.727v6.906a1.727,1.727,0,0,0,1.727,1.727,3.457,3.457,0,0,1,3.453,3.453,1.727,1.727,0,0,0,1.727,1.727h6.906a1.726,1.726,0,0,0,1.727-1.727Zm-7.125-1.727a6.932,6.932,0,0,0-4.961-4.961V203.6a10.387,10.387,0,0,1,8.489,8.489Z" transform="translate(-181.93 -100.376)" fill="#ffd100"/>
    <path id="Path_26150" data-name="Path 26150" d="M189.877,309.179v-3.453A1.726,1.726,0,0,0,188.15,304a13.706,13.706,0,0,0-9.866,4.154l2.467,2.416a10.282,10.282,0,0,1,5.673-2.974v1.584Z" transform="translate(-127.26 -181.93)" fill="#ffd100"/>
    <path id="Path_26151" data-name="Path 26151" d="M252.054,291.512a6.906,6.906,0,1,0-10.294,0l2.573-2.3a3.453,3.453,0,1,1,5.148,0Z" transform="translate(-175.657 -163.111)" fill="#ffd100"/>
    <path id="Path_26152" data-name="Path 26152" d="M202.359,173.18a5.18,5.18,0,1,0-5.18,5.18A5.18,5.18,0,0,0,202.359,173.18Zm-5.18,1.727a1.727,1.727,0,1,1,1.727-1.727A1.727,1.727,0,0,1,197.18,174.906Z" transform="translate(-138.016 -75.282)" fill="#ffd100"/>
    <path id="Path_26153" data-name="Path 26153" d="M189.18,240a5.18,5.18,0,1,0,5.18,5.18A5.18,5.18,0,0,0,189.18,240Zm0,6.906a1.727,1.727,0,1,1,1.727-1.727,1.727,1.727,0,0,1-1.727,1.727Z" transform="translate(-131.742 -131.743)" fill="#ffd100"/>
    <path id="Path_26154" data-name="Path 26154" d="M117.18,272a5.18,5.18,0,1,0,5.18,5.18A5.18,5.18,0,0,0,117.18,272Zm0,6.906a1.727,1.727,0,1,1,1.727-1.727,1.727,1.727,0,0,1-1.727,1.727Z" transform="translate(-75.281 -156.837)" fill="#ffd100"/>
  </g>
</svg>
