<?xml version="1.0" encoding="utf-8"?>
<!-- Generator: Adobe Illustrator 27.5.0, SVG Export Plug-In . SVG Version: 6.00 Build 0)  -->
<svg version="1.1" id="Layer_1" xmlns="http://www.w3.org/2000/svg" xmlns:xlink="http://www.w3.org/1999/xlink" x="0px" y="0px"
	 viewBox="0 0 103.6 79.4" style="enable-background:new 0 0 103.6 79.4;" xml:space="preserve">
<style type="text/css">
	.st0{fill:#FF6633;}
</style>
<g id="pizza_3_" transform="translate(-16 -71.999)">
	<path id="Path_26145" class="st0" d="M119.1,82.9l-10.4-10.4c-0.3-0.3-0.8-0.5-1.2-0.5H48.8c-0.8,0-1.5,0.5-1.7,1.3l0,0l-1.5,5.2
		l3.3,0.9l0.7-2.4l1.4,1.4l2.4-2.4L53,75.5h52.2l-2,6.9H79.9v3.5h22.4L92,121.6c-0.2,0.6,0,1.3,0.4,1.7l7.4,7.4H17.7
		c-1,0-1.7,0.8-1.7,1.7v17.3c0,1,0.8,1.7,1.7,1.7c0,0,0,0,0,0h86.3c1,0,1.7-0.8,1.7-1.7l0,0v-17l13.7-48.1
		C119.7,84,119.5,83.3,119.1,82.9z M19.5,134.2h55.2V148H19.5V134.2z M102.3,148H78.2v-13.8h24.2V148z M103.2,129.1l-7.6-7.6
		L108.4,77l7.6,7.6L103.2,129.1z"/>
	<path id="Path_26146" class="st0" d="M86.8,115.2C86.9,99,73.9,85.7,57.7,85.6s-29.5,12.9-29.6,29.1c0,0.2,0,0.3,0,0.5
		c0,4.5,1,8.8,3,12.8l3.1-1.5c-6.3-12.9-0.9-28.4,12-34.6s28.4-0.9,34.6,12c3.5,7.1,3.5,15.5,0,22.6l3.1,1.5
		C85.8,124,86.8,119.6,86.8,115.2z"/>
	<path id="Path_26147" class="st0" d="M28.5,126.6c-6.3-16,1.5-34,17.5-40.3s34,1.5,40.3,17.5c2.9,7.3,2.9,15.5,0,22.9l3.2,1.3
		c7-17.7-1.7-37.8-19.4-44.8c-17.7-7-37.8,1.7-44.8,19.4c-3.2,8.2-3.2,17.2,0,25.4L28.5,126.6z"/>
	<path id="Path_26148" class="st0" d="M50.5,104.8v-6.9c0-1-0.8-1.7-1.7-1.7c-7.6,0-13.8,6.2-13.8,13.8c0,1,0.8,1.7,1.7,1.7l0,0h6.9
		c1,0,1.7-0.8,1.7-1.7l0,0c0-1.9,1.5-3.5,3.5-3.5C49.8,106.5,50.5,105.8,50.5,104.8L50.5,104.8L50.5,104.8z M47.1,103.3
		c-2.4,0.6-4.3,2.5-5,5h-3.5c0.7-4.3,4.1-7.7,8.5-8.5L47.1,103.3z"/>
	<path id="Path_26149" class="st0" d="M81.6,113.4c0-7.6-6.2-13.8-13.8-13.8c-1,0-1.7,0.8-1.7,1.7c0,0,0,0,0,0v6.9
		c0,1,0.8,1.7,1.7,1.7c0,0,0,0,0,0c1.9,0,3.5,1.5,3.5,3.5c0,1,0.8,1.7,1.7,1.7c0,0,0,0,0,0h6.9C80.8,115.2,81.6,114.4,81.6,113.4
		C81.6,113.4,81.6,113.4,81.6,113.4L81.6,113.4z M74.5,111.7c-0.6-2.4-2.5-4.3-5-5v-3.5c4.3,0.7,7.7,4.1,8.5,8.5L74.5,111.7z"/>
	<path id="Path_26150" class="st0" d="M62.6,127.2v-3.5c0-1-0.8-1.7-1.7-1.7c0,0,0,0,0,0c-3.7,0-7.3,1.5-9.9,4.2l2.5,2.4
		c1.5-1.6,3.5-2.6,5.7-3v1.6L62.6,127.2z"/>
	<path id="Path_26151" class="st0" d="M76.4,128.4c2.5-2.8,2.3-7.2-0.5-9.8c-2.8-2.5-7.2-2.3-9.8,0.5c-2.3,2.6-2.3,6.6,0,9.2
		l2.6-2.3c-1.3-1.4-1.1-3.6,0.3-4.9c1.4-1.3,3.6-1.1,4.9,0.3c1.2,1.3,1.2,3.3,0,4.6L76.4,128.4z"/>
	<path id="Path_26152" class="st0" d="M64.3,97.9c0-2.9-2.3-5.2-5.2-5.2S54,95,54,97.9s2.3,5.2,5.2,5.2h0
		C62,103.1,64.3,100.8,64.3,97.9z M59.2,99.6c-1,0-1.7-0.8-1.7-1.7c0-1,0.8-1.7,1.7-1.7c1,0,1.7,0.8,1.7,1.7
		C60.9,98.9,60.1,99.6,59.2,99.6L59.2,99.6z"/>
	<path id="Path_26153" class="st0" d="M57.4,108.3c-2.9,0-5.2,2.3-5.2,5.2s2.3,5.2,5.2,5.2s5.2-2.3,5.2-5.2v0
		C62.6,110.6,60.3,108.3,57.4,108.3z M57.4,115.2c-1,0-1.7-0.8-1.7-1.7c0-1,0.8-1.7,1.7-1.7c1,0,1.7,0.8,1.7,1.7
		S58.4,115.2,57.4,115.2C57.4,115.2,57.4,115.2,57.4,115.2z"/>
	<path id="Path_26154" class="st0" d="M41.9,115.2c-2.9,0-5.2,2.3-5.2,5.2s2.3,5.2,5.2,5.2s5.2-2.3,5.2-5.2l0,0
		C47.1,117.5,44.8,115.2,41.9,115.2z M41.9,122.1c-1,0-1.7-0.8-1.7-1.7c0-1,0.8-1.7,1.7-1.7s1.7,0.8,1.7,1.7l0,0
		C43.6,121.3,42.9,122.1,41.9,122.1z"/>
</g>
</svg>
