<?xml version="1.0" encoding="UTF-8"?>
<svg id="Layer_1" data-name="Layer 1" xmlns="http://www.w3.org/2000/svg" viewBox="0 0 400 313.73">
  <defs>
    <style>
      .cls-1 {
        fill: #f15a29;
      }
    </style>
  </defs>
  <g id="Group_3163" data-name="Group 3163">
    <path id="Path_26522" data-name="Path 26522" class="cls-1" d="m150.67,212.59c-.18,2.95-.32,5.88-.42,8.78-.12,2.05-.09,4.1.08,6.14.12.73.14,1.47.06,2.2-.08.04-.22-.46-.43-1.51-.33-2.11-.47-4.25-.44-6.4-.02-2.9.05-5.83.22-8.78.17-2.95.42-5.56.74-7.82.31-2.26.7-3.51,1.17-3.73-.29,1.06-.43,2.16-.43,3.27-.18,2.27-.37,4.87-.55,7.82m-4.11,22.95c-.24-.57-.47-1.11-.69-1.64-1.37-3.15-1.95-6.68-1.66-10.18.13,2.15.49,4.27,1.07,6.31.61,2.18,1.33,4.55,2.15,7.09-.34-.49-.63-1.03-.87-1.59m18.92-37.96c-.1-.52-.35-.69-.74-.51-.59.43-1.06,1.04-1.36,1.77-.52.99-1.07,2.1-1.69,3.3-.85,2.22-1.51,4.53-2,6.89-.6,2.75-1.24,5.61-1.92,8.56-.68,2.96-1.45,5.82-2.3,8.58-.74,2.51-1.79,4.89-3.1,7.07-.99-5.98-1.22-12.09-.67-18.14.53-7.74,1.46-15.45,2.79-23.06.2-1.07.2-2.18,0-3.25-.19-1.01-.64-1.93-1.29-2.65-.61-.69-1.34-1.21-2.15-1.54-.78-.31-1.61-.47-2.44-.46-.79,0-1.58.17-2.32.51-1.07.52-1.65,1.25-1.72,2.2-1,8.61-1.71,16.88-2.12,24.8-.49,6.65-.17,13.34.96,19.89.51,3.01,1.7,5.81,3.45,8.13,1.62,2.08,4.28,2.59,6.4,1.23,1.49-.94,2.67-2.41,3.36-4.19,1.2-2.57,2.22-5.24,3.04-7.99.95-3.09,1.81-6.36,2.56-9.82s1.39-6.68,1.9-9.67c.51-3,.88-5.58,1.13-7.75.2-1.28.28-2.59.24-3.89"/>
    <path id="Path_26523" data-name="Path 26523" class="cls-1" d="m149.21,175.57c-.15-.39-.27-.8-.33-1.23-.06-.43-.12-.85-.18-1.23-.38-2.5-.05-5.06.93-7.34-.37,1.48-.55,3.02-.55,4.56,0,1.62.04,3.38.13,5.27m5.38-7.92c-.26.89-.46,1.8-.58,2.73.01.58-.34,1.08-.84,1.17-.02-.17-.01-.34.02-.5.03-.11.04-.22.03-.34.05-.65.16-1.29.34-1.91.25-1.06.54-2.23.89-3.48s.69-2.38,1.03-3.36.58-1.5.74-1.55c-.03.55-.11,1.1-.24,1.64-.18.87-.39,1.82-.63,2.83s-.5,1.94-.76,2.78m2.39-8.4c-.75-.5-1.56-.89-2.39-1.17-.89-.3-1.8-.5-2.72-.59-.73-.1-1.47,0-2.17.27-.54.26-1.01,1.2-1.41,2.82-.42,1.77-.72,3.59-.89,5.42-.2,1.9-.3,3.82-.32,5.73-.05,1.23,0,2.46.16,3.68.13.65.45,1.22.9,1.64.47.46,1.01.81,1.6,1.04.6.24,1.22.37,1.85.41.52.06,1.05-.02,1.54-.23.37-.17.67-.49.83-.91.87-3.74,1.57-6.74,2.1-9.01.57-2.41,1.26-4.78,2.08-7.09.06-.17.07-.35.02-.53-.2-.66-.63-1.19-1.18-1.49"/>
    <path id="Path_26524" data-name="Path 26524" class="cls-1" d="m180.5,223.74c1.89-.7,3.65-1.31,5.29-1.84,1.53-.51,3.11-.82,4.7-.93-2.59-.22-5.19.28-7.58,1.45l-1.22.59c-.42.2-.81.45-1.19.73m12.81-5.22c-4.77-.46-9.57.5-13.92,2.79l-2.26,1.08c-.81.4-1.59.88-2.32,1.43,5.93-2.73,12.16-4.52,18.51-5.32m-14.04-38.82c1.57-.87,3.07-1.9,4.47-3.08-.93.65-1.9,1.22-2.9,1.71l-2.95,1.42c-1.01.48-2.09.98-3.26,1.49s-2.06.91-2.68,1.23l.57.35c.75-.06,1.48-.2,2.2-.43.85-.41,2.36-1.3,4.55-2.66m10.73-11.56c1.22-.62,2.65-.35,3.63.69,1.18.95,2,2.37,2.32,3.97.17.84.07,1.72-.28,2.48-1.3,2.82-2.88,6.08-4.72,9.79-1.85,3.71-3.73,7.54-5.66,11.49-1.93,3.96-3.84,7.88-5.72,11.77-1.89,3.89-3.56,7.49-5.03,10.8,1.24-.59,2.74-1.24,4.51-1.93s3.65-1.36,5.63-2.01c1.99-.65,3.96-1.24,5.93-1.77,1.79-.5,3.62-.83,5.45-.99,1.37-.15,2.76-.07,4.11.26.9.13,1.65.87,1.89,1.87.18,1.03.22,2.08.11,3.11-.09,1.19-.28,2.38-.57,3.53-.25,1.02-.59,2.01-1,2.96-.25.69-.69,1.26-1.27,1.62-.17.07-.37.05-.52-.07-1.6-.43-3.24-.63-4.89-.62-2.05-.01-4.09.16-6.11.52-2.21.38-4.39.88-6.56,1.51-2.07.6-4.11,1.37-6.08,2.3-1.11.53-2.18,1.19-3.16,1.99-.84.7-1.75,1.29-2.7,1.76-.49.26-1.06.25-1.54-.04-.5-.31-.95-.73-1.32-1.23-.42-.58-.77-1.23-1.02-1.92-.26-.69-.46-1.4-.61-2.13-.17-.63-.22-1.31-.14-1.96.66-3.1,1.59-6.12,2.79-9.01,1.31-3.23,2.76-6.55,4.37-9.98,1.6-3.43,3.25-6.91,4.95-10.43,1.71-3.53,3.31-6.9,4.79-10.11.23-.51.5-1,.79-1.47.36-.58.5-.97.47-1.16-.28.24-.58.43-.9.59l-2.32,1.11c-1.09.52-2.27,1.07-3.56,1.64-1.28.56-2.5,1.09-3.62,1.58s-2.15.89-3,1.2c-.45.22-.94.35-1.43.38-.36,2.04-.83,4.58-1.41,7.63-.58,3.04-1.21,5.97-1.88,8.78-.67,2.82-1.32,5.29-1.96,7.42s-1.22,3.32-1.77,3.58c-.4.29-.92.21-1.24-.18-.28-.36-.48-.81-.57-1.28-.1-1.23-.03-2.48.22-3.68.28-1.8.66-3.9,1.16-6.32s1.01-4.96,1.53-7.61.94-5.19,1.22-7.61c-1.19-.05-2.01-1.17-2.44-3.35-.53-2.63-.46-5.38.2-7.98.26-2.03,1.29-3.83,2.83-4.89,1.12-.52,2.38-.51,3.5.03,1.14.41,2.01,1.48,2.27,2.82.02.1.02.21,0,.31-.02.15,0,.31.03.45,3.63-.76,7.18-2,10.57-3.68,3.49-1.64,6.75-3.84,9.69-6.55"/>
    <path id="Path_26525" data-name="Path 26525" class="cls-1" d="m202.11,199.22c.76-.51,1.56-.94,2.39-1.28l2.31-.95c4.45-2.01,9.29-2.68,14.03-1.92-6.38.4-12.68,1.8-18.73,4.15m11.06-1.23c-1.66.42-3.44.93-5.37,1.51.39-.26.8-.48,1.22-.65l1.24-.51c2.44-1.02,5.06-1.36,7.64-.99-1.6.02-3.19.24-4.74.64m-3.51-42.16c-2.08,1.05-4.22,1.9-6.42,2.56-1.02.23-2.06.29-3.1.19-.28-.09-.52-.3-.67-.59.82-.29,2.29-.93,3.82-1.41s2.66-.69,3.98-1.17l3.89-1.39c1.33-.48,2.62-1.08,3.87-1.8-1.68,1.41-3.47,2.62-5.37,3.61m20.09,35.84c-.19-1.01-.9-1.8-1.79-1.99-1.33-.41-2.72-.59-4.1-.52-1.84.05-3.68.27-5.49.65-1.99.41-4,.88-6.01,1.4-2.01.52-3.93,1.08-5.72,1.64s-3.32,1.14-4.59,1.64c1.61-3.21,3.46-6.7,5.54-10.47s4.18-7.56,6.28-11.4c2.11-3.82,4.18-7.53,6.2-11.13,2.02-3.6,3.75-6.76,5.18-9.48.39-.74.53-1.61.39-2.46-.24-1.63-.99-3.09-2.12-4.11-1.17-1.11-2.07-1.53-2.7-1.27-3.37,2.64-7.02,4.75-10.88,6.28-3.46,1.47-7.07,2.48-10.73,3.01.03-.41.01-.82-.05-1.23-.3-1.43-1.22-2.58-2.44-3.06-2.52-1.16-5.38.25-6.39,3.13-.21.6-.33,1.23-.35,1.87-.44,2.63-.45,5.34-.03,7.97.33,2.21,1.09,3.37,2.28,3.5-.29,2.56-.82,5.09-1.58,7.52-.61,2.4-1.18,4.68-1.75,6.89.09.78.71,1.32,1.39,1.22.25-.04.48-.16.66-.35,2.02-2.89,3.59-6.16,4.63-9.66.73-1.94,1.27-3.97,1.61-6.05.36-.06.66-.13,1.21-.27.89-.23,1.9-.6,3.05-1.02l3.69-1.35c1.31-.48,2.52-.95,3.62-1.41l2.37-.97c.33-.13.64-.31.93-.53.03.19-.15.57-.53,1.13-.31.45-.59.93-.85,1.42-1.63,3.11-3.39,6.38-5.27,9.79s-3.71,6.79-5.49,10.12c-1.76,3.32-3.37,6.55-4.83,9.69-1.33,2.8-2.41,5.75-3.22,8.8-.11.65-.1,1.32.05,1.97.11.74.28,1.46.5,2.16.22.71.53,1.38.93,1.99.34.53.77.98,1.26,1.32.46.32,1.03.37,1.53.14.98-.41,1.91-.95,2.78-1.6,1.02-.73,2.11-1.33,3.25-1.78,2.02-.81,4.08-1.46,6.18-1.92,2.19-.5,4.4-.87,6.62-1.11,2.04-.23,4.09-.28,6.13-.14,1.64.09,3.27.41,4.85.94.15.12.34.16.52.09.59-.32,1.06-.86,1.34-1.53.46-.92.84-1.89,1.14-2.89.35-1.13.59-2.3.74-3.49.15-1.03.16-2.08.03-3.12"/>
    <path id="Path_26526" data-name="Path 26526" class="cls-1" d="m241.12,165.53c3.64-4.32,5.6-10.14,5.44-16.13-.54,5.83-2.42,11.4-5.44,16.13m3.91-20.54c-.23-.18-.51-.24-.78-.14-.79.32-1.63,1.57-2.53,3.71-.95,2.31-1.77,4.69-2.45,7.11-.74,2.6-1.36,5.05-1.86,7.34-.36,1.42-.61,2.88-.74,4.35.29,0,.58-.06.85-.19,1.57-.73,2.88-2.05,3.71-3.74,1.07-1.94,1.94-4.01,2.6-6.18.65-2.1,1.13-4.27,1.43-6.47.26-1.56.32-3.15.17-4.73-.06-.38-.19-.75-.4-1.06m-11.03,13.68c.39-.68.73-1.41,1-2.17.58-1.41,1.19-2.98,1.81-4.72.63-1.73,1.43-4.07,2.41-7.02-.39.55-.72,1.15-.99,1.78-.58,1.16-1.2,2.51-1.85,4.04-.65,1.54-1.24,3.08-1.76,4.62-.45,1.08-.66,2.27-.62,3.46m-3.32,1.81c.21-.82.63-2.01,1.22-3.63l1.79-4.86c.59-1.64,1.11-3.05,1.56-4.3.29-.69.5-1.42.62-2.17-2.18,3.73-3.88,7.79-5.04,12.08-.75,2.37-1.12,4.88-1.09,7.4.16-.06.28-.67.36-1.83.03-.94.23-1.86.6-2.69m26.56-8.57c.83-1.74,1.97-3.25,3.36-4.43.24-.1.38.04.44.43.04,1.6-.19,3.2-.68,4.71l-.97,3.61c-.85,3.3-1.75,6.68-2.7,10.12-.91,3.33-2.05,6.58-3.39,9.72-1.22,2.88-2.76,5.56-4.59,7.99-1.69,2.25-3.86,3.95-6.3,4.94-1.74.75-3.58,1.09-5.44,1.01-1.61-.07-3.19-.52-4.65-1.31-1.33-.73-2.5-1.79-3.42-3.11-.91-1.33-1.51-2.89-1.75-4.56-.51-4.11-.45-8.28.17-12.37.63-4.8,1.7-9.52,3.18-14.06,1.38-4.34,3.24-8.47,5.52-12.28,1.67-3.11,4.14-5.54,7.07-6.96,1.99-.93,4.24-.78,6.11.41,1.78,1.09,3,3.09,3.29,5.38.33,2.77.12,5.6-.61,8.27-.77,3.15-1.87,6.19-3.26,9.05-1.36,2.82-3,5.44-4.91,7.81-1.46,1.97-3.31,3.51-5.39,4.5-.63.28-1.3.4-1.97.35-.06.72-.08,1.44-.06,2.16.02.69.08,1.37.18,2.05.19,1.7.87,3.28,1.93,4.48,1,1.08,2.56,1.18,4.69.3,2.1-.99,3.86-2.75,5-5,1.5-2.69,2.81-5.52,3.89-8.47,1.13-3.06,2.12-5.99,2.97-8.78.56-2.07,1.32-4.07,2.25-5.96"/>
    <path id="Path_26527" data-name="Path 26527" class="cls-1" d="m276.09,137.63c-.23,1.63-.24,3.28-.02,4.91.26,1.74.94,3.37,1.95,4.7-.47-1.39-.83-2.83-1.07-4.29-.28-1.62-.57-3.39-.85-5.32m-16.69,14.47c.08-7.11,1.02-14.18,2.78-21-2.56,6.59-3.52,13.84-2.78,21m24.18-30.83c.83.48,1.42,1.36,1.61,2.4.14,1.31.02,2.64-.36,3.89-.4,1.53-.83,3.29-1.29,5.26-.49,2.15-.85,4.34-1.09,6.55-.26,2.64-.18,5.31.24,7.92.09.57.19,1.14.32,1.7s.28,1.17.45,1.8c.28,1.16-.31,2.36-1.32,2.68-.01,0-.02,0-.03.01-1.69.73-3.59-.1-4.43-1.93-1.5-2.9-2.45-6.13-2.8-9.48l-.22-1.51c-.08-.56-.13-1.13-.13-1.71-1.93,6.7-3.63,13.3-5.09,19.81-1.38,5.9-2.16,11.97-2.33,18.07.04,1.2-.62,2.28-1.62,2.65-1.88,1.14-4.21.63-5.59-1.23-1.46-2.34-2.38-5.06-2.68-7.92-.54-3.92-.76-7.9-.64-11.87.09-4.47.33-8.77.72-12.9.39-4.13.83-7.73,1.34-10.79.25-1.94.66-3.84,1.22-5.69.42-.88,1.15-1.52,2-1.74.72-.3,1.49-.46,2.26-.47.77-.02,1.55.08,2.3.28.69.17,1.33.5,1.9.97.74.69,1.12,1.78.99,2.87-.6,3.82-1.32,8.24-2.17,13.27-.82,4.75-1.23,9.58-1.24,14.42.15-1.67.39-3.32.72-4.95.39-2.14.9-4.54,1.51-7.18s1.34-5.32,2.19-8.08c.81-2.63,1.75-5.21,2.81-7.72.91-2.2,2.01-4.28,3.28-6.23.93-1.54,2.24-2.74,3.76-3.45,1.12-.49,2.38-.39,3.43.28"/>
    <path id="Path_26528" data-name="Path 26528" class="cls-1" d="m294.66,103.74c.02.1.02.21,0,.32-.03.15-.03.3,0,.45.39-.16.62-.63.67-1.42,0-.35.02-.7.1-1.04.22-.38.37-.81.45-1.25.21-.8.42-1.68.62-2.62.19-.94.36-1.83.48-2.64.1-.5.15-1,.15-1.51-.16.07-.38.56-.66,1.49s-.57,1.99-.85,3.17-.52,2.28-.72,3.27c-.14.58-.22,1.18-.24,1.78m5.08,5.42c-.2.39-.51.68-.88.82-.5.17-1.03.23-1.55.17-.62-.04-1.23-.18-1.81-.41-.56-.21-1.08-.54-1.53-.98-.41-.38-.69-.91-.79-1.51-.08-1.13-.06-2.26.06-3.39.13-1.76.35-3.51.66-5.24.28-1.67.69-3.32,1.21-4.91.49-1.47,1.01-2.32,1.56-2.55.7-.24,1.44-.31,2.17-.2.9.09,1.79.29,2.66.59.81.26,1.58.64,2.31,1.12.65.45,1.01.91,1.07,1.39.03.16.01.33-.05.48-.95,2.09-1.79,4.24-2.5,6.45-.66,2.05-1.53,4.78-2.61,8.19m-6.62,45.8c-.04-1.88.06-3.76.29-5.62.27-2.66.59-5.32.94-8.03s.69-5.07,1.01-7.13c.07-1.03.28-2.05.62-3-.48.19-.94,1.32-1.38,3.39-.44,2.07-.84,4.45-1.2,7.14-.35,2.69-.6,5.36-.75,8.02-.16,1.95-.14,3.92.05,5.86.14.96.26,1.42.34,1.39.12-.66.15-1.35.08-2.02m12.79-22.96c.67-1.09,1.3-2.08,1.87-2.98.36-.67.86-1.21,1.46-1.59.4-.16.63,0,.72.47-.04,1.2-.2,2.4-.48,3.56-.37,1.99-.9,4.34-1.58,7.07s-1.5,5.66-2.46,8.79c-.95,3.14-2,6.12-3.13,8.92-.99,2.52-2.16,4.94-3.5,7.24-.83,1.64-2.08,2.95-3.58,3.76-2.1,1.23-4.66.73-6.28-1.23-1.58-2.13-2.6-4.74-2.94-7.51-.72-6.05-.64-12.19.24-18.21.89-7.24,2.09-14.78,3.61-22.64.12-.86.72-1.52,1.84-1.97.75-.29,1.53-.43,2.32-.41.82.01,1.62.17,2.39.48.77.31,1.46.8,2.04,1.45.59.66.99,1.52,1.12,2.46.14.99.08,2.01-.19,2.98-1.77,6.9-3.16,13.93-4.15,21.04-.9,5.47-1.04,11.07-.42,16.59,1.42-1.94,2.6-4.09,3.51-6.4,1.01-2.5,1.95-5.09,2.8-7.78s1.66-5.28,2.42-7.78c.63-2.16,1.43-4.26,2.4-6.25"/>
    <path id="Path_26529" data-name="Path 26529" class="cls-1" d="m346.51,138.92c4.2-5.68,9.3-10.4,15.02-13.92-6.06,2.92-11.27,7.74-15.02,13.92m-15.9-10.61c.03.2.08-.13.17-.98s.18-1.88.29-3.1.19-2.37.24-3.46c.05-.68.05-1.37,0-2.05-.39.16-.69,1.38-.9,3.66s-.35,4.78-.45,7.52c-.1,2.73-.13,5.29-.11,7.69.02,2.39.06,3.72.1,4.01.05-1.86.13-3.62.21-5.29.04-1.44.09-2.87.17-4.34s.17-2.66.28-3.63m-5.66,1.69c-.35-.14-.67-.34-.97-.6-.36-.26-.61-.69-.68-1.17-.04-.74-.04-1.47,0-2.21.03-1.19.09-2.51.16-3.96s.11-2.92.1-4.4c0-1.22-.07-2.44-.23-3.65-.2-1.34-.53-1.92-1.01-1.73-.64.26-1.28,1.26-1.94,3.01-.77,2.1-1.41,4.25-1.92,6.45-.62,2.54-1.22,5.31-1.79,8.29-.57,2.98-1.04,5.85-1.43,8.6-.39,2.76-.67,5.24-.84,7.45-.18,1.58-.19,3.17-.04,4.75.11.77.29,1.11.52,1.02.47-.19,1.23-1.3,2.27-3.3s2.11-4.22,3.22-6.66,2.09-4.81,2.96-7.09c.63-1.55,1.17-3.15,1.61-4.79m-9.06-16.16c.06-.11.1-.23.13-.36.03-.13.08-.25.14-.36l.1-.19c-.68.43-1.24,1.08-1.6,1.87-.63,1.13-1.19,2.3-1.68,3.52-.5,1.23-.92,2.5-1.25,3.8-.28.92-.39,1.89-.33,2.87.65-1.28,1.29-2.61,1.92-3.99,1.06-2.29,1.92-4.69,2.58-7.17m-6.16,10.92c.23-.7.55-1.76.98-3.15s.86-2.8,1.32-4.21.9-2.66,1.33-3.75.72-1.67.87-1.73c-1.11,1.32-2.01,2.85-2.65,4.53-.68,1.68-1.22,3.44-1.61,5.24-.33,1.51-.59,3.05-.76,4.59-.11.8-.16,1.62-.14,2.43.08-.03.14-.42.2-1.15.09-.94.24-1.88.47-2.79m49.58-3.63c2.15-.57,4.39-.49,6.5.24,1.6.53,2.78,2.07,3.04,3.95.06,1-.2,2-.72,2.81-.45.97-1.18,1.72-2.07,2.14-.63.26-1,.06-1.1-.61-.08-.57-.11-1.15-.07-1.73.04-.53.02-1.06-.05-1.58-.17-1.15-.81-1.5-1.91-1.05-4.02,2.21-7.63,5.27-10.66,9.01-2.83,3.48-5.45,7.18-7.83,11.08-2.22,3.66-4.13,6.91-5.72,9.75-.98,2.17-2.51,3.94-4.39,5.08-1.09.49-2.32.37-3.32-.32-1.09-.78-2-1.85-2.66-3.11-.78-1.44-1.43-2.97-1.94-4.56-.5-1.51-.88-3.07-1.13-4.65-.04-.29-.09-.6-.14-.94-.05-.33-.06-.66-.02-.99-1.23,2.8-2.63,5.49-4.2,8.06-1.41,2.5-3.35,4.53-5.66,5.9-1.27.62-2.7.66-4,.11-1.18-.55-2.23-1.4-3.07-2.49-.88-1.12-1.58-2.41-2.07-3.81-.45-1.2-.78-2.45-.99-3.72-.61-4.43-.71-8.94-.3-13.4.38-4.77,1.19-9.48,2.43-14.06,1.08-4.14,2.67-8.09,4.73-11.72,1.48-2.89,3.74-5.16,6.44-6.46,1.06-.43,2.18-.63,3.31-.59,1.16.02,2.3.34,3.34.93,1.11.64,2.1,1.54,2.9,2.63.96,1.33,1.68,2.86,2.11,4.5,1.36.08,2.69.5,3.89,1.23,1.29.61,2.21,1.93,2.46,3.5.06.51.06,1.03,0,1.53-.29,1.44-.6,3.35-.91,5.73-.32,2.37-.59,4.91-.81,7.59s-.39,5.43-.47,8.22c-.1,2.47-.03,4.94.22,7.4,1.29-2.66,2.73-5.22,4.33-7.65,1.65-2.55,3.45-4.97,5.39-7.25,1.87-2.2,3.9-4.21,6.08-6,1.96-1.64,4.11-2.95,6.39-3.91.39-.16.83-.32,1.31-.46.44-.13.88-.24,1.33-.32"/>
    <path id="Path_26530" data-name="Path 26530" class="cls-1" d="m389.9,7.35c.49-.14.94-.34,1.35-.6.36-.24.67-.53.94-.85.3-.36.44-.8.4-1.24,0-.06-.04-.1-.1-.13-.16-.03-.32-.02-.47.02-.16.03-.36.08-.61.15-.32.1-.63.21-.94.33l-.57,2.31Zm2.11,1.5c.02.21.12.4.3.54.19.17.41.33.65.46.21.12.44.22.67.3.12.06.26.09.4.09-.41.56-1.04.98-1.79,1.18-.41.08-.84.04-1.21-.13-.36-.16-.68-.37-.95-.63-.35-.3-.64-.66-.84-1.04l-.74,2.6c-.22.15-.47.27-.74.34-.21.05-.43.02-.61-.08-.16-.09-.3-.21-.4-.36-.14-.17-.23-.37-.25-.57l1.7-6.62c-.28-.04-.53-.17-.7-.37-.12-.17-.18-.35-.19-.54,0-.14.03-.28.08-.42.02-.07.05-.15.09-.22.3.02.6.02.89-.02.28-.03.58-.08.89-.14l1.88-.34c.34-.06.69-.09,1.03-.1.36-.01.72.05,1.05.18.35.16.63.41.8.72.25.46.37.96.36,1.46.03.52-.08,1.03-.34,1.5-.46.87-1.16,1.63-2.05,2.22m3.63,1.28c.56-.84.99-1.74,1.28-2.67.22-.71.32-1.44.31-2.17,0-.85-.25-1.69-.72-2.44-.36-.56-.79-1.08-1.28-1.55-.76-.09-1.53-.14-2.32-.16-.77-.02-1.54.03-2.3.17-.96.18-1.87.51-2.69.97-.97.59-1.77,1.34-2.35,2.22-.68.88-1.21,1.83-1.58,2.83-.26.73-.39,1.48-.38,2.24.01.54.12,1.08.33,1.59.18.43.4.84.66,1.24.22.33.48.64.77.93.22.21.42.44.59.68.5.05,1.11.1,1.82.14.76.05,1.53,0,2.28-.14,1.03-.2,2-.57,2.86-1.09,1.15-.74,2.08-1.7,2.73-2.79m.18-9.48c.57.48,1.08,1,1.52,1.57.41.58.77,1.18,1.07,1.8.35.73.54,1.51.57,2.3,0,.83-.17,1.65-.51,2.43-.39.94-.93,1.84-1.62,2.65-.73.86-1.6,1.64-2.58,2.29-.98.66-2.14,1.12-3.37,1.34-1.07.2-2.17.23-3.26.09-1.02-.13-1.99-.46-2.83-.96-.86-.51-1.55-1.19-2.03-1.98-.55-.93-.85-1.96-.85-3.01-.02-.65.05-1.31.22-1.95.21-.76.52-1.49.92-2.2.39-.73.9-1.41,1.51-2.02.54-.53,1.15-1,1.82-1.4.61-.36,1.27-.66,1.96-.88.64-.21,1.3-.37,1.97-.5.44-.08.85-.14,1.26-.18s.79-.08,1.17-.09c.36-.01.72,0,1.07.05.32.05.65.13.99.21.35.09.69.22,1,.38"/>
    <path id="Path_26531" data-name="Path 26531" class="cls-1" d="m110.53,221.42c7.32-7.12,12.59-16.6,15.13-27.2-3.55,10.05-8.68,19.27-15.13,27.2m14.07-30.87c.68-3.17,1.04-6.41,1.07-9.67,0-3.28-.25-6.55-.74-9.77-.11-.77-.29-1.53-.53-2.26-.23-.65-.54-.89-.95-.72-.75.43-1.35,1.12-1.72,1.98-.57,1.09-.95,1.84-1.15,2.27-1.66,3.46-3.07,7.07-4.23,10.79-1.29,4.06-2.51,8.34-3.66,12.85-1.14,4.51-2.18,9.12-3.13,13.84-.94,4.71-1.79,9.16-2.55,13.34,3.53-4.75,6.97-9.83,10.31-15.24,3.28-5.27,5.74-11.16,7.26-17.4m-29.15,57.54c.26-6.94.67-14.34,1.23-22.2.56-7.86,1.21-16.27,1.95-25.22-2.67,15.61-3.74,31.53-3.18,47.42m-14.91-14.74c-1.63-1.76-2.66-4.11-2.93-6.66-.58-5.09-.38-10.25.58-15.27-1.6,4.93-2.23,10.21-1.85,15.45.29,2.86,1.89,5.33,4.2,6.48m54.73-61.69c.29.8.5,1.63.63,2.48.13.86.26,1.72.39,2.58.42,2.88.62,5.8.59,8.73-.02,2.98-.25,5.96-.68,8.9-.73,3.97-2.07,7.77-3.97,11.2-2.26,4.29-4.82,8.36-7.65,12.18-3.01,4.1-6.27,7.94-9.76,11.51-3.23,3.34-6.67,6.41-10.3,9.16-.12,5.63-.08,10.94.1,15.94.18,4.99,1.48,14.67,2.09,18.74.18,1.18.39,2.32.64,3.41.25,1.1.45,2.17.62,3.25.14.97-.11,1.58-.76,1.85-1.21.29-2.47.12-3.58-.5-1.6-.68-3.16-1.5-4.65-2.46-1.07-.7-1.89-1.83-2.29-3.16-.67-1.96-1.15-4-1.43-6.08-.94-6.21-1.55-12.48-1.83-18.77-.06-5.32.08-10.96.4-16.91.32-5.95.74-11.98,1.26-18.11.51-6.13,1.08-11.86,1.72-17.19.63-5.32,1.23-10.04,1.79-14.14s1.03-7.14,1.43-9.13c-2.58,2.9-4.69,6.31-6.22,10.06-2.02,4.58-3.7,9.36-5.01,14.27-1.33,4.86-2.32,9.84-2.97,14.88-.61,4.01-.68,8.1-.2,12.13.15,1.64.74,3.19,1.7,4.43.62.57,1.1,1.32,1.36,2.18.11.75-.36,1.35-1.43,1.78-1.18.47-2.42.69-3.66.64-1.25-.02-2.49-.33-3.63-.9-1.14-.59-2.16-1.46-2.97-2.55-.89-1.22-1.47-2.69-1.67-4.27-.35-2.95-.29-5.94.17-8.87.52-3.84,1.32-7.63,2.39-11.32,1.17-4.11,2.54-8.15,4.1-12.1,1.51-3.88,3.27-7.63,5.27-11.21,1.75-3.16,3.76-6.13,6.01-8.86,1.73-2.22,3.89-3.96,6.31-5.06.79-.33,1.62-.49,2.45-.49.45.02.91,0,1.36-.04.19-.08.37-.18.54-.31.17-.12.35-.22.54-.3-.09.03.15.02.72-.03.38-.08.77-.04,1.12.14.07.64.11,1.28.09,1.93-.03,1.11-.15,2.22-.36,3.31-.04.36-.16,1.09-.39,2.2s-.44,2.29-.64,3.51-.46,2.87-.75,4.91c.94-3.88,1.69-7.81,2.26-11.78.08-1.2.25-2.38.51-3.54,0,.11.27.23.77.37s.83.82,1.01,1.98c.04.27.06.54.06.82,0,.27.02.55.06.82-.18,3.48-.5,7.29-.96,11.41s-.88,8.99-1.26,14.61c.95-4.03,2.06-8.19,3.33-12.47,1.18-4.04,2.56-8.01,4.14-11.87,1.33-3.31,2.94-6.47,4.82-9.41,1.33-2.27,3.2-4.04,5.4-5.11,1.22-.56,2.57-.6,3.81-.1,1.18.52,2.24,1.34,3.08,2.41.93,1.17,1.72,2.49,2.33,3.92.65,1.49,1.22,2.95,1.68,4.35"/>
    <path id="Path_26532" data-name="Path 26532" class="cls-1" d="m45.92,115.14c3.01-2.87,5.86-5.95,8.53-9.23-2.35,3.63-5.24,6.75-8.53,9.23m-35.49-9.82c9.65-14.83,24.58-26.71,44.81-35.64-16.94,8.18-32.2,20.32-44.81,35.64m41.29,45.96c-6.55,16.65-18.65,27.78-36.3,33.4,16.96-6.46,29.06-17.59,36.3-33.4m22.07-80.18c-.43-.92-.96-1.77-1.57-2.54-2.18-2.65-5.45-3.71-8.52-2.78-5.43,1.36-10.76,3.24-15.91,5.63-5.54,2.53-10.88,5.63-15.95,9.24-5.12,3.63-9.9,7.85-14.27,12.6-4.26,4.57-7.89,9.85-10.75,15.68-1,1.93-1.8,3.98-2.39,6.11-.58,2-.86,4.11-.81,6.22.05,2.26.74,4.45,1.98,6.22,1.29,1.86,2.8,3.5,4.51,4.85,1.8,1.44,3.73,2.66,5.76,3.62,2.08,1,3.99,1.85,5.72,2.54,1.64.72,3.55,1.46,5.72,2.21,2.17.76,4.24,1.56,6.22,2.42,1.74.73,3.41,1.64,5.01,2.71,1.37.95,2.07,1.98,2.1,3.09-2.21,6.5-6.14,12.05-11.24,15.88-5.1,3.67-10.73,6.27-16.64,7.65-.82.2-1.66.3-2.5.32-.87.04-1.74-.16-2.52-.61.46-.43.95-.8,1.47-1.11.72-.45,1.43-.87,2.17-1.28s1.43-.79,2.04-1.17c.42-.28.87-.5,1.34-.66,5.3-2.63,10.72-4.96,16.23-6.96.92-.46,1.68-1.26,2.15-2.28.61-.97.95-2.13.97-3.33-.04-1.23-.67-1.67-1.9-1.38-2.92.94-6.27,2.08-10.05,3.45-3.63,1.3-7.16,2.91-10.57,4.83-3.02,1.66-5.82,3.8-8.31,6.37C1.19,170.59-.01,173.5,0,176.56c-.01,2.13.84,4.15,2.31,5.46,1.54,1.36,3.3,2.38,5.17,3,1.96.69,3.99,1.06,6.04,1.12,1.7.09,3.4-.05,5.07-.41,4.06-1.04,7.96-2.78,11.56-5.15,3.92-2.51,7.57-5.53,10.88-9.01,3.3-3.45,6.19-7.38,8.58-11.69,2.29-4.03,3.88-8.53,4.67-13.26.16-.67.24-1.36.22-2.05-.08-2.05-.77-4-1.95-5.54-1.29-1.74-2.78-3.27-4.44-4.54-1.7-1.3-3.48-2.46-5.33-3.47-1.84-1-3.39-1.85-4.65-2.55-1.55-.74-3.33-1.58-5.37-2.54s-3.94-1.94-5.72-2.95c-1.63-.89-3.15-2-4.54-3.32-1.08-.9-1.77-2.28-1.9-3.8.09-.48.27-.92.54-1.3,2.42-3.85,5.13-7.44,8.11-10.74,3.35-3.79,6.89-7.36,10.61-10.69,3.62-3.26,7.44-6.2,11.45-8.81,3.35-2.24,6.92-4.01,10.64-5.26-.92,2.76-2.06,5.41-3.41,7.93-1.32,2.52-2.96,4.81-4.87,6.79-.39-.13-.78-.29-1.16-.47-.36-.18-.76-.23-1.15-.14-.28.07-.83.76-1.65,2.07-.82,1.32-1.68,2.83-2.58,4.56s-1.82,3.48-2.77,5.27-1.69,3.25-2.23,4.38c-.68,1.22-1.03,2.64-1.02,4.09,0,1.53.54,2.99,1.48,4.07.83,1.02,2.07,1.45,3.25,1.13.65-.15,1.23-.53,1.68-1.08,2.81-2.93,5.43-6.08,7.87-9.41,2.48-3.39,4.9-6.82,7.27-10.29.91-1.34,2.07-3.1,3.48-5.28,1.41-2.18,2.72-4.4,3.93-6.64,1.16-2.12,2.21-4.3,3.17-6.55.78-1.64,1.21-3.46,1.27-5.32-.03-1.08-.28-2.14-.74-3.08"/>
    <path id="Path_26533" data-name="Path 26533" class="cls-1" d="m91.28,130.25c.48-2.29.9-4.41,1.27-6.34.28-1.27.45-2.57.51-3.87,0-.11.02-.17.07-.18s.06-.07.06-.18v-.16c-.09.02-.25.2-.47.52-.3.56-.5,1.19-.57,1.85-.72,4.09-1.35,7.78-1.9,11.05-.48,2.84-.91,5.42-1.3,7.73-.29,1.23-.44,2.5-.44,3.77.23-1.46.66-3.61,1.27-6.42s1.11-5.4,1.51-7.78m-14.25-19.35c-.72.64-1.35,1.4-1.89,2.25-.96,1.3-1.85,2.67-2.66,4.09-.11.38-.26.75-.45,1.09-.31.62-.62,1.29-.92,2.01-.3.72-.58,1.39-.84,2s-.36.9-.25.88c-.28.07.32-1.02,1.79-3.27,1.69-2.65,3.26-5.4,4.7-8.23l.53-.78v-.03Zm6.08,16.78c.3-1.01.52-2.05.67-3.1.19-1.23.38-2.56.58-3.97.18-1.36.3-2.72.36-4.09.05-1.32.06-2.46.04-3.43-.05-1.5-.36-2.19-.9-2.05-.74.18-1.59,1.18-2.56,2.98-1.13,2.17-2.13,4.43-2.99,6.76-1.03,2.69-2.06,5.66-3.08,8.89s-1.92,6.34-2.71,9.3c-.79,2.96-1.43,5.64-1.91,8.04-.4,1.7-.63,3.45-.68,5.21.02.76.18,1.1.45,1.03,1.12-.87,2.1-1.97,2.9-3.23,1.56-2.06,3.17-4.4,4.8-7.03,1.64-2.63,3.12-5.13,4.44-7.52.91-1.35,1.58-2.9,1.95-4.55-.37-.21-.71-.49-1-.82-.36-.35-.58-.86-.6-1.4.02-.36.11-.71.25-1.04m-14.78-4.88c.36-.84.84-2.02,1.5-3.54s1.32-3.01,2.02-4.5,1.33-2.77,1.9-3.88.94-1.7,1.13-1.74c-.72,1.04-1.53,2.25-2.47,3.61-.95,1.39-1.81,2.85-2.58,4.38-.79,1.56-1.47,3.2-2.01,4.89-.53,1.61-.83,3.31-.89,5.03.26-.6.47-1.23.64-1.87.33-1.11.59-1.91.77-2.39m38.91-3.6c.79-1.06,1.63-2.08,2.5-3.05.5-.64,1.13-1.14,1.84-1.43.46-.11.72.1.72.64-.2.96-.48,1.9-.82,2.81-.55,1.66-1.25,3.73-2.11,6.22-.85,2.49-1.86,5.23-3.03,8.23-1.16,3-2.33,5.92-3.49,8.75-1.17,2.83-2.34,5.4-3.53,7.7-.92,1.88-2.02,3.65-3.26,5.28-.56.64-1.2,1.18-1.9,1.6-.56.34-1.17.6-1.79.77-.82.2-1.67.24-2.5.12l-.56-.19c-1.72-.11-3.32-1.06-4.4-2.6-1.15-1.73-1.92-3.75-2.27-5.89-1.74,2.87-3.66,5.6-5.74,8.16-1.9,2.51-4.34,4.43-7.08,5.55-1.5.46-3.09.27-4.47-.54-1.24-.79-2.3-1.9-3.09-3.24-.84-1.37-1.45-2.91-1.81-4.53-.34-1.38-.55-2.81-.62-4.24-.11-5.03.38-10.05,1.43-14.93,1.04-5.16,2.57-10.18,4.56-14.96,1.76-4.35,4.05-8.39,6.8-12.01,2.05-2.94,4.87-5.04,8.04-6,1.24-.29,2.51-.33,3.76-.1,1.29.21,2.52.75,3.6,1.56,1.15.89,2.13,2.03,2.89,3.37.89,1.6,1.49,3.4,1.76,5.27,1.5.32,2.92,1,4.17,2,1.35.87,2.22,2.48,2.29,4.25,0,.57-.08,1.14-.23,1.69-1.74,4.72-3.15,9.58-4.23,14.55-1.04,4.47-1.53,9.09-1.46,13.72,1.54-2.06,2.9-4.3,4.05-6.68,1.26-2.59,2.44-5.24,3.52-7.95,1.08-2.7,2.16-5.3,3.25-7.78.9-2.14,1.98-4.18,3.22-6.08"/>
    <path id="Path_26535" data-name="Path 26535" class="cls-1" d="m266.94,77.51c.5-2.35.93-4.52,1.3-6.5.29-1.3.46-2.63.52-3.97,0-.11,0-.17.06-.18s.07-.07.06-.18v-.17c-.09.02-.26.2-.48.54-.31.58-.51,1.22-.59,1.9-.73,4.19-1.38,7.98-1.94,11.34-.48,2.91-.92,5.55-1.33,7.93-.3,1.26-.45,2.56-.45,3.87.24-1.5.67-3.7,1.3-6.58s1.14-5.55,1.55-7.99m-14.62-19.85c-.74.66-1.39,1.44-1.93,2.31-.99,1.33-1.9,2.72-2.73,4.18-.11.4-.27.77-.47,1.12-.31.63-.63,1.32-.94,2.07s-.6,1.43-.87,2.05-.36.92-.25.9c-.29.07.32-1.05,1.83-3.37,1.73-2.72,3.34-5.54,4.82-8.44l.55-.81Zm6.25,17.19c.3-1.04.53-2.1.69-3.18.2-1.27.39-2.63.59-4.09.18-1.39.3-2.79.36-4.19.06-1.35.07-2.53.04-3.52-.05-1.54-.36-2.26-.92-2.12-.76.19-1.63,1.21-2.63,3.07-1.16,2.23-2.18,4.54-3.07,6.93-1.07,2.77-2.12,5.81-3.16,9.13-1.04,3.32-1.97,6.5-2.79,9.54-.81,3.04-1.47,5.79-1.96,8.26-.42,1.75-.66,3.54-.72,5.35.02.78.18,1.13.47,1.06,1.15-.9,2.16-2.02,2.98-3.32,1.6-2.12,3.24-4.52,4.93-7.22,1.68-2.7,3.2-5.27,4.55-7.71.94-1.39,1.62-2.97,2-4.67-.38-.21-.72-.49-1.03-.82-.38-.36-.6-.88-.62-1.44.02-.37.11-.73.25-1.06m-15.17-5.01c.36-.86.87-2.07,1.53-3.63.67-1.56,1.36-3.09,2.08-4.6s1.37-2.84,1.95-3.98.97-1.74,1.16-1.78l-2.53,3.71c-.97,1.43-1.86,2.93-2.65,4.5-.81,1.6-1.51,3.28-2.07,5.02-.55,1.65-.86,3.39-.92,5.15.27-.62.49-1.26.66-1.92.36-1.15.61-1.96.78-2.46m39.92-3.68c.8-1.09,1.66-2.13,2.55-3.13.51-.66,1.16-1.16,1.89-1.46.48-.11.72.1.73.65-.2.98-.48,1.94-.84,2.87-.57,1.7-1.29,3.83-2.16,6.38s-1.91,5.36-3.1,8.45c-1.19,3.07-2.38,6.06-3.58,8.98-1.19,2.91-2.4,5.54-3.62,7.9-.95,1.93-2.07,3.74-3.34,5.41-.58.65-1.24,1.2-1.95,1.64-.58.35-1.2.61-1.84.78-.84.21-1.71.25-2.56.13l-.58-.19c-1.77-.12-3.41-1.08-4.51-2.66-1.18-1.78-1.97-3.85-2.33-6.04-1.78,2.95-3.75,5.75-5.9,8.37-1.95,2.58-4.45,4.54-7.26,5.69-1.54.47-3.17.27-4.59-.55-1.27-.81-2.36-1.95-3.18-3.32-.86-1.41-1.48-2.98-1.86-4.65-.35-1.42-.56-2.88-.63-4.36-.11-5.16.39-10.31,1.46-15.32,1.07-5.29,2.64-10.44,4.68-15.35,1.82-4.46,4.17-8.6,6.99-12.31,2.09-3.02,4.98-5.19,8.23-6.18,1.27-.3,2.58-.33,3.86-.1,1.32.23,2.58.77,3.7,1.61,1.18.91,2.19,2.09,2.97,3.46.92,1.64,1.53,3.48,1.81,5.41,1.54.32,3.01,1.02,4.29,2.05,1.38.9,2.27,2.54,2.35,4.36,0,.59-.08,1.17-.23,1.73-1.78,4.84-3.23,9.83-4.34,14.93-1.07,4.59-1.57,9.33-1.5,14.08,1.59-2.12,2.98-4.42,4.15-6.86,1.3-2.66,2.51-5.37,3.61-8.15s2.21-5.44,3.33-8c.93-2.2,2.04-4.29,3.31-6.24"/>
    <path id="Path_26536" data-name="Path 26536" class="cls-1" d="m305.11,53.68c-.48,1.78-.72,3.65-.69,5.51.07,2.01.62,3.96,1.6,5.63-.36-1.65-.58-3.33-.65-5.03-.11-1.86-.19-3.9-.26-6.12m-21.04,13.47c1.05-8.01,3.08-15.82,6.01-23.19-3.81,6.96-5.89,14.98-6.01,23.19m31.81-30.64c.88.68,1.44,1.77,1.52,2.98-.02,1.51-.34,2.99-.94,4.33-.66,1.67-1.4,3.57-2.19,5.73-.85,2.35-1.57,4.75-2.15,7.21-.66,2.93-.92,5.95-.8,8.97.02.66.06,1.32.13,1.97s.16,1.36.28,2.11c.16,1.37-.68,2.62-1.88,2.8-.01,0-.02,0-.04,0-2.02.55-4.08-.7-4.81-2.93-1.32-3.52-1.97-7.32-1.91-11.15,0-.55-.03-1.13-.05-1.74-.02-.65.01-1.3.09-1.94-3.12,7.22-5.95,14.37-8.5,21.46-2.38,6.4-4.09,13.1-5.11,19.96-.12,1.37-1.02,2.47-2.2,2.71-2.3.97-4.87,0-6.22-2.33-1.35-2.88-2.04-6.11-2-9.38-.09-4.52.2-9.05.88-13.51.7-5.02,1.56-9.82,2.56-14.41s2-8.56,3-11.93c.55-2.15,1.27-4.23,2.17-6.21.6-.92,1.51-1.51,2.5-1.62.87-.21,1.76-.26,2.64-.14.89.11,1.76.35,2.6.71.76.31,1.45.8,2.04,1.42.54.58.85,1.38.85,2.22.03.4,0,.81-.1,1.2-1.21,4.2-2.64,9.06-4.27,14.58-1.58,5.21-2.71,10.58-3.37,16.03.4-1.85.89-3.68,1.47-5.46.74-2.35,1.64-4.96,2.69-7.83,1.06-2.88,2.25-5.79,3.58-8.74,1.28-2.83,2.7-5.58,4.26-8.22,1.34-2.32,2.88-4.49,4.59-6.47,1.28-1.58,2.93-2.71,4.76-3.25,1.35-.36,2.77-.04,3.89.89"/>
    <path id="Path_26537" data-name="Path 26537" class="cls-1" d="m323.31,55.12c.18-.38.49-1.01.94-1.9.45-.89.94-1.87,1.48-2.96.54-1.07,1.08-2.12,1.62-3.15.45-.88.95-1.73,1.5-2.54-1.05,1.2-2.02,2.5-2.88,3.88-.74,1.08-1.37,2.24-1.9,3.47-.47.98-.73,2.07-.76,3.19m-3.22,2.78c.17-.6.36-1.17.52-1.72s.3-.93.39-1.18c.45-1.44,1-2.84,1.66-4.17.85-1.82,1.72-3.59,2.63-5.32s1.74-3.24,2.5-4.54c.37-.71.8-1.38,1.29-1.99l-1.24,1.48c-2.52,3.3-4.62,6.99-6.24,10.96-1.23,2.62-1.97,5.5-2.17,8.47.09-.02.19-.16.28-.41l.38-1.6m31.48-8.16c1.2-1.85,2.71-3.41,4.44-4.59.28-.07.43.12.44.56-.02.73-.17,1.45-.44,2.11-.31.86-.68,1.95-1.11,3.27l-1.59,4.07c-1.32,3.55-2.76,7.16-4.32,10.83-1.49,3.53-3.2,6.94-5.12,10.19-1.75,2.99-3.83,5.71-6.18,8.1-2.17,2.22-4.81,3.76-7.65,4.45-2.18.59-4.44.66-6.64.2-1.85-.41-3.61-1.26-5.15-2.51-1.44-1.16-2.61-2.71-3.42-4.5-.81-1.76-1.26-3.71-1.32-5.69-.01-4.55.6-9.07,1.81-13.4,1.33-5.21,3.14-10.24,5.4-15.02,2.14-4.61,4.8-8.87,7.91-12.69,2.44-3.24,5.68-5.55,9.3-6.61,2.17-.53,4.43-.09,6.33,1.23,1.92,1.12,3.14,3.36,3.18,5.83-.08,1.45-.32,2.89-.72,4.27-.55,2.22-1.27,4.38-2.15,6.46-.9,2.17-1.98,4.22-3.24,6.14-.89,1.58-2.25,2.74-3.83,3.27-1.13.27-1.72-.2-1.76-1.42.01-.56.15-1.11.38-1.6.89-2.23,1.68-4.51,2.36-6.84.51-1.54.8-3.16.86-4.81-.04-1.33-.44-1.9-1.2-1.72-.85.2-1.85,1.23-2.98,3.06-1.27,2.09-2.42,4.27-3.45,6.52-1.16,2.52-2.23,5.09-3.19,7.72-.84,2.2-1.54,4.46-2.08,6.78-.71,2.74-1.06,5.58-1.03,8.44-.05,2.11.52,4.18,1.61,5.88,1.23,1.45,3.09,1.95,4.76,1.27,2.72-.74,5.15-2.48,6.93-4.95,2.1-2.73,3.95-5.7,5.52-8.86,1.62-3.24,3.05-6.34,4.29-9.32.82-2.17,1.86-4.21,3.1-6.1"/>
    <path id="Path_26538" data-name="Path 26538" class="cls-1" d="m377.45,20.87c.81.24,1.58.65,2.26,1.2.82.63,1.56,1.38,2.21,2.23.63.81,1.2,1.68,1.72,2.59.46.73.73,1.59.79,2.48.1.2.2.41.3.59s.15.24.15.13c-.07-.96-.29-1.9-.65-2.76-.42-1.08-.96-2.1-1.6-3.04-.66-.96-1.46-1.79-2.36-2.44-.84-.64-1.82-.98-2.82-.99m-3.41,37.94c.66-1.58,1.23-3.21,1.71-4.87.61-2.02,1.16-4.2,1.66-6.53.5-2.33.9-4.7,1.21-7.09.29-2.17.41-4.36.36-6.56.05-2.29-.47-4.55-1.48-6.53-1.05-1.55-2.86-2.15-4.48-1.49-1.43.35-2.75,1.16-3.79,2.33-1.16,1.29-2.11,2.81-2.8,4.49-.77,1.84-1.33,3.79-1.68,5.79-.36,2.05-.52,4.15-.45,6.25.05,1.79.27,3.57.66,5.31.35,1.6.96,3.11,1.79,4.47.8,1.29,1.83,2.37,3.03,3.16,1.3.84,2.76,1.29,4.26,1.3m-10.37,11.38c.43.03.87-.02,1.28-.14,2.34-.78,4.44-2.34,6.01-4.47-2.23-.59-4.32-1.73-6.11-3.36-1.94-1.77-3.61-3.91-4.91-6.32-.46,2.13-.68,4.32-.65,6.52,0,1.83.42,3.64,1.23,5.22.69,1.32,1.83,2.26,3.15,2.57m-10.81-21.78c0-.2,0-.4.05-.59.04-.2.06-.4.05-.6-.01-.19.03-.38.13-.53-.19.04-.41.49-.67,1.33-.31,1.04-.56,2.11-.76,3.19-.25,1.29-.47,2.74-.65,4.34-.19,1.57-.26,3.15-.21,4.73.04,1.75.22,3.5.52,5.22.23,1.42.68,2.79,1.34,4.02-.73-2.56-1.1-5.23-1.1-7.92-.08-2.51.01-5.02.27-7.51.16-1.93.51-3.84,1.04-5.69m42.01-12.24c.92-1.11,1.77-2.05,2.55-2.84.51-.6,1.16-1.05,1.89-1.33.47-.11.72.05.72.45-.17,1.18-.52,2.33-1.03,3.41-2.2,5.13-4.83,10.06-7.87,14.71-2.44,3.78-5.89,6.73-9.93,8.49-1.99,3.5-4.49,6.66-7.41,9.37-2.54,2.41-5.64,4.08-8.99,4.86-2.35.62-4.82.58-7.15-.09-1.93-.61-3.68-1.74-5.04-3.29-1.37-1.58-2.41-3.45-3.04-5.47-.7-2.14-1.09-4.38-1.16-6.65-.02-.7.03-2.02.15-3.98.13-1.99.37-3.96.72-5.92.33-1.86.79-3.68,1.39-5.47.57-1.64,1.23-2.54,1.99-2.71.78-.15,1.58-.15,2.36,0,.91.15,1.78.5,2.54,1.03-.11-.36-.17-.74-.19-1.11,0-.35-.02-.68-.03-.98-.08-2.45.28-4.89,1.04-7.21.76-2.35,1.86-4.57,3.28-6.57,1.38-1.94,3.03-3.66,4.9-5.09,1.75-1.37,3.77-2.33,5.91-2.82,2.29-.6,4.71-.5,6.95.29,1.9.73,3.59,1.95,4.91,3.55,1.33,1.66,2.32,3.58,2.9,5.65.64,2.14,1,4.35,1.07,6.58.08,2.95-.16,5.91-.72,8.8-.58,3.09-1.43,6.12-2.55,9.05.93-.92,1.76-1.94,2.47-3.05.72-1.12,1.44-2.31,2.17-3.58.73-1.27,1.5-2.58,2.3-3.92.82-1.34,1.77-2.74,2.86-4.2m-254.65,52.65c.81.24,1.58.65,2.26,1.2.82.63,1.56,1.38,2.21,2.23.63.81,1.2,1.68,1.72,2.59.46.73.73,1.59.79,2.48.1.2.2.41.3.59s.15.24.15.13c-.07-.96-.29-1.9-.65-2.76-.42-1.08-.96-2.1-1.6-3.04-.66-.96-1.46-1.79-2.36-2.44-.84-.64-1.82-.98-2.82-.99m-3.41,37.94c.66-1.58,1.23-3.21,1.71-4.87.61-2.02,1.16-4.2,1.66-6.53.5-2.33.9-4.7,1.21-7.09.29-2.17.41-4.36.36-6.56.05-2.29-.47-4.55-1.48-6.53-1.05-1.55-2.86-2.15-4.48-1.49-1.43.35-2.75,1.16-3.79,2.33-1.16,1.29-2.11,2.81-2.8,4.49-.77,1.84-1.33,3.79-1.68,5.79-.36,2.05-.52,4.15-.45,6.25.05,1.79.27,3.57.66,5.31.35,1.6.96,3.11,1.79,4.47.8,1.29,1.83,2.37,3.03,3.16,1.3.84,2.76,1.29,4.26,1.3m-10.37,11.38c.43.03.87-.02,1.28-.14,2.34-.78,4.44-2.34,6.01-4.47-2.23-.59-4.32-1.73-6.11-3.36-1.94-1.77-3.61-3.91-4.91-6.32-.46,2.13-.68,4.32-.65,6.52,0,1.83.42,3.64,1.23,5.22.69,1.32,1.83,2.26,3.15,2.57m31.2-34.01c.92-1.11,1.77-2.05,2.55-2.84.51-.6,1.16-1.05,1.89-1.33.47-.11.72.05.72.45-.17,1.18-.52,2.33-1.03,3.41-2.2,5.13-4.83,10.06-7.87,14.71-2.44,3.78-5.89,6.73-9.93,8.49-1.99,3.5-4.49,6.66-7.41,9.37-2.54,2.41-5.64,4.08-8.99,4.86-2.35.62-4.82.58-7.15-.09-1.93-.61-3.68-1.74-5.04-3.29-1.37-1.58-2.41-3.45-3.04-5.47-.7-2.14-1.09-4.38-1.16-6.65-.02-.7.03-2.02.15-3.98.13-1.99.37-3.96.72-5.92.33-1.86.79-3.68,1.39-5.47.57-1.64,1.23-2.54,1.99-2.71.78-.15,1.58-.15,2.36,0,.91.15,1.78.5,2.54,1.03-.11-.36-.17-.74-.19-1.11,0-.35-.02-.68-.03-.98-.08-2.45.28-4.89,1.04-7.21.76-2.35,1.86-4.57,3.28-6.57,1.38-1.94,3.03-3.66,4.9-5.09,1.75-1.37,3.77-2.33,5.91-2.82,2.29-.6,4.71-.5,6.95.29,1.9.73,3.59,1.95,4.91,3.55,1.33,1.66,2.32,3.58,2.9,5.65.64,2.14,1,4.35,1.07,6.58.08,2.95-.16,5.91-.72,8.8-.58,3.09-1.43,6.12-2.55,9.05.93-.92,1.76-1.94,2.47-3.05.72-1.12,1.44-2.31,2.17-3.58.73-1.27,1.5-2.58,2.3-3.92.82-1.34,1.77-2.74,2.86-4.2"/>
    <path id="Path_26539" data-name="Path 26539" class="cls-1" d="m228.34,124.22c-1.12-3.37-1.67-6.96-1.61-10.56.13-15.47,1.58-30.89,4.31-46.04-3.23,14.71-5.02,29.78-5.34,44.94-.17,4.1.75,8.17,2.64,11.66m-3.51-77.39c.28-.55.53-1.13.74-1.72.11-.38.27-.74.47-1.08-.48.12-1.29,1.41-2.45,3.86s-2.52,5.61-4.07,9.46c-1.55,3.84-3.14,8.13-4.76,12.89-1.62,4.75-3.07,9.46-4.36,14.13-1.3,4.42-2.29,7.8-2.98,10.14s-1.23,4.11-1.62,5.3c-.4,1.18-.63,1.95-.72,2.29-.06.23-.1.46-.12.7.58-1.03.98-2.17,1.18-3.36,1.81-6.21,3.5-11.84,5.06-16.9,1.56-5.06,3.11-9.7,4.65-13.92,1.54-4.22,3.04-8.11,4.51-11.67,1.47-3.56,2.96-6.94,4.48-10.12m-22.81-2.72c.44-1.13.79-2.03,1.07-2.66.19-.49.42-.96.67-1.42.18-.41.21-.69.12-.79-.79,1.37-1.51,2.8-2.15,4.27-1.34,2.83-2.83,6.3-4.47,10.41s-3.22,8.5-4.74,13.17c-1.38,4.05-2.38,8.26-2.98,12.55,2.17-6.69,4.31-13.17,6.41-19.44,1.79-5.48,3.82-10.85,6.08-16.09m-18.12,48.24c.62-1.49,1.15-3.03,1.58-4.61.95-3.05,2.04-6.52,3.26-10.41s2.39-7.7,3.51-11.43c1.12-3.73,1.95-6.24,2.48-7.53.44-1.26,1.12-3.25,2.04-5.97s1.88-5.42,2.9-8.11c1.02-2.67,1.99-5.06,2.93-7.15.94-2.08,1.69-3.2,2.26-3.34-.57.14-1.48,1.64-2.72,4.5s-2.66,6.41-4.25,10.64c-1.59,4.24-3.19,8.79-4.8,13.67-1.62,4.88-3.12,9.47-4.51,13.79-1.4,4.31-2.52,7.95-3.38,10.92-.54,1.63-.97,3.31-1.28,5.02m-13.66,20.82c2.95-24.12,7.18-48.01,12.69-71.53-4.01,15.46-7.08,29.12-9.19,40.98-1.91,10.05-3.08,20.27-3.5,30.55m-9.57-35.83c-.55-1.98-.79-4.06-.72-6.14.25-4.88,1.14-9.68,2.63-14.25-1.96,4.59-3.19,9.53-3.64,14.61-.19,2.11.43,4.22,1.71,5.77m71.32-6.88c-1.13,6.82-2.13,14.02-2.99,21.58-.84,6.99-1.17,14.05-1,21.1.04,1.4.14,2.87.28,4.36.13,1.41.37,2.8.72,4.15.27,1.12.76,2.16,1.43,3.04.65.82,2.43.82,3.19,1,.48.07.95.25,1.37.53.43.33.69.88.69,1.47-.09,1.26-.73,2.39-1.7,3.01-1.74,1.25-3.64,2.18-5.63,2.75-1.46.35-2.96.39-4.43.12-1.59-.3-3.06-1.15-4.22-2.43-1.44-1.65-2.53-3.65-3.18-5.86-.94-3.2-1.42-6.56-1.43-9.93-.14-5.19-.04-10.38.31-15.55.37-5.63.98-11.23,1.85-16.78.88-5.66,1.94-11.33,3.2-17.02,1.21-5.53,2.72-10.96,4.51-16.28l-1.48,3.05c-1.71,3.49-3.42,7.49-5.14,12.01s-3.36,9.22-4.93,14.08c-1.56,4.87-3.08,9.85-4.55,14.95-1.47,5.1-2.85,9.92-4.13,14.46l-.39,1.25-.85.2c-2.49.69-5.06-.67-6.21-3.29-1.18-3.08-1.78-6.4-1.79-9.75-.14-4.13-.03-8.27.34-12.38.36-3.93.86-7.74,1.51-11.42.65-3.68,1.4-7.29,2.25-10.83.84-3.55,1.69-7.15,2.53-10.81-2.29,6.2-4.52,12.77-6.69,19.7-2.17,6.93-4.31,13.99-6.44,21.17-2.11,7.18-4.49,14.2-6.13,21.39-1.97,8.62-3.07,16.69-4.65,25.21-.21,1.42-.56,2.8-1.05,4.13-.25.45-.65.77-1.12.85-1.43.34-2.91-.17-3.93-1.35-.98-1.16-1.79-2.49-2.41-3.94-.75-2.16-1.32-4.4-1.71-6.68-.42-2.78-.65-5.6-.68-8.42-.14-5.03.03-10.06.5-15.07.55-5.39,1.28-10.92,2.2-16.59s1.88-11.13,2.86-16.37c.98-5.24,1.85-9.61,2.6-13.13.84-3.67,1.59-7.18,2.25-10.55s1.38-6.61,2.15-9.75c.76-3.14,1.62-6.32,2.56-9.57,1.01-3.41,2.2-6.75,3.56-10-3.29,3.17-6.21,6.82-8.67,10.86-2.84,4.51-5.39,9.24-7.64,14.17-2.16,4.64-3.97,9.49-5.42,14.48-1.19,3.72-1.82,7.64-1.86,11.6-.13,1.89.39,3.76,1.43,5.22.03.44-.08.88-.32,1.23-.37.48-.92.73-1.47.7-2-.17-3.98-.67-5.85-1.51-1.55-.77-2.97-1.86-4.17-3.21-1.37-1.66-2.1-3.86-2.05-6.14.17-5.1,1.36-10.1,3.48-14.59,2.59-6.2,5.69-12.1,9.26-17.63,3.59-5.67,7.73-10.87,12.32-15.49,3.52-3.88,7.83-6.68,12.55-8.15,1.01-.21,2.04-.33,3.07-.36,1.05-.1,2.11-.13,3.16-.08.91.04,1.81.21,2.68.51.86.3,1.31.77,1.33,1.41-.16.93-.37,1.85-.63,2.75-.26.9-.64,1.98-1.12,3.25s-1.15,2.87-2,4.81-1.55,4.36-2.72,7.48l1.61-3.46c1.79-3.63,3.42-7.36,4.88-11.18.28-1.03.65-2.03,1.12-2.96.17.24.32.49.45.76.38.6.6,1.31.64,2.05-.03.68-.13,1.34-.3,1.99-.21.95-.49,2.01-.83,3.18-.36,1.18-.57,1.92-.9,3.15s-1.25,3.89-1.61,4.75c-1.22,3.39-1.9,5.38-2.86,8.69s-1.89,6.8-2.83,10.49-2.05,7.56-2.86,11.75c-.84,4.53-1.45,9.1-1.84,13.7.72-1.82.94-2.87,1.75-5.26.36-1.06,1-2.84,1.02-2.87.72-1.71.97-2.57,2.1-5.83s2.39-6.83,3.75-10.64c1.36-3.81,2.79-7.7,4.29-11.71s2.98-7.68,4.46-10.98c1.25-2.88,2.69-5.64,4.32-8.26.86-1.7,2.21-3.01,3.82-3.72.9-.16,1.83-.02,2.66.41.74.28,1.43.71,2.04,1.27.96.78,1.79,1.75,2.45,2.87.63,1.06.99,2.31,1.04,3.59.05.67-.02,1.35-.23,1.98-.95,3.44-1.81,6.69-2.56,9.76-.75,3.07-1.47,6.1-2.15,9.08-.67,2.98-1.34,6.06-2.01,9.23-.69,3.58-1.12,7.21-1.31,10.86,2.62-7.56,5.29-14.5,8.01-20.79,2.72-6.3,5.65-12.52,8.8-18.67.25-.56.71-.96,1.26-1.08,1.11-.25,2.25-.12,3.3.35,1.15.48,2.24,1.16,3.22,2.01.97.84,1.8,1.87,2.45,3.05.61,1.04.97,2.25,1.03,3.5-.03.54-.11,1.08-.23,1.6-1.7,5.56-3.11,11.24-4.24,16.99-.98,5.24-1.99,11-3.04,17.28"/>
    <path id="Path_26540" data-name="Path 26540" class="cls-1" d="m279.25,194.9s-.04.08-.03.1.11-.12.23-.32c.23-.39.44-.8.62-1.23.19-.46.36-.93.52-1.4.15-.45.28-.91.39-1.38.11-.45.19-.82.26-1.15-.07.11-.11.17-.12.16s-.04.07-.08.22c-.02.03-.04.07-.03.11,0,.02,0,.05,0,.08l-.02.04c-.16.59-.31,1.11-.45,1.56s-.27.86-.39,1.23-.25.67-.36.95c-.13.29-.27.57-.43.84-.04.06-.07.13-.07.2m2.19-4.24s.01-.1,0-.15c-.06.27-.13.53-.21.79-.11.34-.24.71-.38,1.12-.15.41-.31.82-.48,1.25s-.36.82-.53,1.15c-.15.3-.32.59-.51.86-.11.18-.27.32-.45.39.36-.26.68-.6.92-1.01.27-.45.51-.92.72-1.41.21-.5.39-1.01.54-1.53.15-.52.28-1.01.39-1.46m-3.24-8.23s.04-.08.03-.1c.05,0,0,.11-.19.36s-.36.56-.59.93c-.21.36-.41.74-.58,1.13-.15.3-.22.65-.19,1,.04-.16.1-.31.18-.45.13-.3.29-.65.47-1.05s.36-.77.52-1.12.28-.59.36-.7m-1.94,3.84c.1-.4.22-.78.36-1.16.15-.38.3-.75.45-1.12s.32-.7.48-1.01c.16-.31.31-.58.45-.82-.04,0-.07.04-.09.08-.13.14-.25.29-.36.45-.11.16-.2.33-.28.52-.09.22-.17.45-.22.69-.05.11-.12.3-.21.56s-.17.53-.25.82l-.23.74c-.07.22-.11.34-.12.36,0-.01,0-.03,0-.04v-.07Zm-.93.82s-.02,0-.04.06c-.03.13-.05.27-.06.41-.09.61-.16,1.17-.22,1.68s-.11.96-.16,1.35-.08.7-.1.92-.03.35-.03.37.06.11.15.09.07-.09.06-.24,0-.43,0-.82c.01-.22.04-.44.08-.66.06-.34.11-.71.18-1.12s.11-.82.14-1.19c.03-.28.03-.56,0-.84m-1.15,2.48c0-.21.04-.44.06-.7s.06-.54.09-.86c.02-.19.05-.41.09-.7s.08-.56.13-.82.08-.5.1-.72c.01-.14.01-.27,0-.41l-.11.45c-.18,1.64-.34,2.95-.47,3.97-.12.63-.17,1.28-.15,1.92,0,.06.05.1.1.1,0,0,.02,0,.02,0,.03,0,.06-.23.08-.68s.04-.95.04-1.54m-3.35,2.49c-.35-.35-.57-.83-.65-1.35-.11-.87-.06-1.75.16-2.59-.32.83-.45,1.74-.38,2.64.08.57.41,1.06.88,1.3m12.34-10.16c.1.28.18.57.23.86.12.81.17,1.63.15,2.46-.03,1.04-.12,2.08-.28,3.11-.18,1.14-.43,2.27-.76,3.37-.34,1.14-.78,2.24-1.32,3.27-.53,1.03-1.18,1.97-1.92,2.81-.74.84-1.62,1.5-2.59,1.95-.07.06-.15.1-.24.12l-.25.06c-.3.07-.62.05-.92-.06-.26-.1-.51-.26-.72-.48-.21-.22-.37-.47-.5-.76-.12-.28-.21-.58-.27-.88-.11-.57.03-1.17.38-1.59.38-.47.82-.86,1.32-1.14.5-.29,1.02-.52,1.56-.71.51-.18.87-.29,1.07-.33l.13-.03c.25-.06.4.04.44.29.02.1,0,.2-.03.28-.04.09-.11.17-.2.2-.61.21-1.18.53-1.71.93-.41.32-.8.68-1.16,1.08-.25.28-.47.6-.65.94-.09.15-.16.32-.19.5,0,.08.11.1.28.06.18-.05.36-.11.53-.19.28-.14.54-.3.79-.5.67-.47,1.26-1.08,1.73-1.8.51-.77.95-1.61,1.3-2.48.38-.92.68-1.87.92-2.84.23-.95.41-1.92.54-2.89.11-.88.18-1.76.19-2.64.02-.7-.03-1.4-.14-2.09-.04-.45-.2-.87-.44-1.23-.17-.22-.42-.32-.67-.26-.36.12-.68.38-.91.72-.37.5-.69,1.05-.94,1.64-.33.72-.62,1.47-.85,2.24-.26.86-.48,1.73-.64,2.62-.16.9-.27,1.81-.32,2.73-.05.86-.01,1.72.11,2.56.03.05.05.11.06.17.02.09.02.18,0,.27-.03.09-.1.14-.24.18-.04,0-.09,0-.13,0h-.13c-.06.02-.12.02-.19,0-.03,0-.06-.02-.09-.04-.02,0-.04.02-.05.04,0,0,0,.02,0,.03-.15,0-.31-.02-.46-.07-.03-.02-.07-.03-.11-.02-.02,0-.03.02-.03.04,0,.02-.02.03-.06.04-.18.06-.36.06-.54,0-.14-.05-.26-.14-.36-.26-.09-.12-.16-.26-.2-.41-.04-.16-.08-.3-.1-.44-.12-.83-.14-1.68-.08-2.53.06-1.02.16-2.06.31-3.11s.3-2.06.48-3.02c.18-.95.33-1.71.47-2.26-.52.43-.95.98-1.27,1.61-.41.75-.75,1.56-1.02,2.39-.28.84-.48,1.7-.61,2.59-.12.71-.14,1.43-.04,2.14.04.32.16.62.36.85.12.11.21.25.26.41-.02.04-.04.08-.06.12-.01.03-.04.06-.07.06-.02,0-.04,0-.05,0-.02,0-.04,0-.05,0-.03,0-.05.02-.04.04s0,.04-.05.04c-.1.03-.2.02-.29-.02-.01,0-.03.01-.04.02,0,.01-.02.02-.04.02-.24.06-.48.04-.72-.04-.22-.08-.43-.19-.62-.35-.18-.15-.34-.34-.46-.55-.12-.2-.2-.42-.24-.65-.08-.55-.06-1.12.04-1.67.12-.69.29-1.36.52-2.01.25-.71.55-1.39.89-2.05.34-.65.73-1.28,1.15-1.87.38-.53.8-1.01,1.28-1.43.38-.35.82-.6,1.29-.72.14-.03.28-.03.42,0,.14.03.28.04.42.02.06,0,.12,0,.19,0,.14,0,.21.05.23.13.01.32-.02.63-.1.94-.05.11-.08.23-.1.36-.04.19-.08.39-.13.59s-.11.41-.16.6c-.03.13-.08.26-.15.37-.03.05,0-.07.1-.36s.19-.61.31-.97.22-.7.31-1.02.13-.47.09-.46.04.05.11.1c.09.07.16.17.19.29.08.53.05,1.07-.08,1.58-.13.59-.25,1.16-.36,1.71.48-1.34,1.12-2.6,1.92-3.73.57-.88,1.37-1.53,2.29-1.84.07-.01.14-.01.21,0,.25.02.49.11.72.24.27.15.52.33.75.55.24.22.45.46.65.72.17.23.32.48.43.76"/>
    <path id="Path_26541" data-name="Path 26541" class="cls-1" d="m286.11,183.96s0,.04,0,.06c0,.03,0,.06,0,.09.08-.02.13-.11.14-.26,0-.07,0-.13,0-.2,0,0,.05-.08.09-.23s.09-.32.12-.5.07-.35.1-.51c.02-.1.03-.2.03-.29-.04,0-.08.1-.14.27s-.12.38-.18.6-.11.44-.14.63c-.03.11-.05.23-.05.34m1.1,1.25c-.04.07-.11.12-.19.13-.11.03-.22.03-.33,0-.14-.03-.27-.08-.39-.14-.12-.06-.23-.15-.33-.25-.09-.08-.15-.2-.18-.32-.02-.22-.02-.45,0-.67.02-.34.07-.68.13-1.02.05-.32.14-.64.25-.94.1-.27.21-.41.33-.45.16-.02.31-.01.47.04.2.05.39.12.57.2.17.08.34.18.49.3.11.07.2.18.24.31.01.03.01.06,0,.09-.2.39-.37.79-.52,1.2-.14.39-.32.9-.54,1.53m-1.31,8.87c-.01-.37,0-.74.05-1.11.06-.52.11-1.04.18-1.56s.13-.98.2-1.38.1-.59.13-.57c-.1.02-.2.23-.29.63s-.17.86-.24,1.38-.11,1.04-.14,1.57c-.03.39-.02.78.03,1.17.03.19.06.29.07.29s.02-.14,0-.41m2.68-4.13l.39-.53c.08-.12.18-.22.31-.27.06-.02.13.02.15.09,0,.01,0,.02,0,.03,0,.23-.04.46-.09.69-.08.38-.18.82-.33,1.35s-.31,1.07-.5,1.66c-.19.57-.41,1.12-.65,1.67-.21.47-.45.91-.74,1.32-.18.3-.45.53-.76.63-.49.16-1.02-.03-1.35-.47-.33-.45-.56-1-.65-1.59-.17-1.2-.17-2.41,0-3.61.17-1.41.41-2.87.72-4.37.03-.17.15-.28.39-.33.16-.03.33-.03.5,0,.18.03.35.09.51.18.17.09.32.21.44.36.13.14.21.32.25.52.03.2.02.4-.03.59-.36,1.32-.64,2.67-.83,4.04-.18,1.08-.2,2.19-.05,3.27.3-.33.55-.72.73-1.15.21-.47.4-.95.58-1.45s.36-.99.5-1.47c.13-.41.3-.8.5-1.16"/>
    <path id="Path_26542" data-name="Path 26542" class="cls-1" d="m294.08,190.66s-.03.07-.03.19,0,.27,0,.46v.56c0,.16.02.33.05.49,0,.08.03.16.04.23.02.09.04.18.08.26.02.11.05.21.08.32v-.32c0-.21-.05-.45-.08-.72s-.06-.52-.09-.77c-.03-.17-.03-.35-.02-.53l-.03-.17h0Zm-.1,2.92c-.02-.07-.05-.14-.08-.21-.06-.14-.09-.29-.12-.45-.05-.28-.07-.57-.08-.85v-1.08c0-.36,0-.86.02-1.35-.05.48-.09.89-.11,1.23s-.04.66-.04.99c-.02.26,0,.53.04.79,0,.02,0,.08.05.19s.06.21.1.33c.03.1.08.21.12.3.04.09.08.13.11.13m3.29-5.66c.1-.19.22-.38.36-.54.08-.12.2-.21.32-.26.07,0,.11.03.13.13,0,.22-.03.43-.08.64-.06.37-.16.82-.3,1.34s-.3,1.08-.5,1.7c-.18.58-.4,1.15-.65,1.71-.22.49-.49.95-.8,1.37-.24.34-.56.58-.93.69-.36.07-.74-.05-1.02-.32-.39-.37-.64-.9-.72-1.47-.1-.61-.14-1.23-.11-1.85.03-.69.07-1.34.15-1.96s.15-1.16.24-1.64.15-.82.17-.97c-.19.33-.35.68-.49,1.05-.24.58-.51,1.28-.8,2.1-.29.82-.57,1.72-.83,2.68-.25.92-.44,1.85-.57,2.8.01.19-.11.35-.28.37-.27.02-.53-.1-.72-.32-.36-.44-.58-.99-.64-1.59-.14-1.03-.17-2.08-.09-3.12.14-1.75.42-3.49.85-5.18.03-.19.16-.33.33-.35.24-.04.49,0,.72.13.26.12.51.27.74.46l-.09.2-.19.63c-.09.31-.19.64-.27.99s-.16.71-.22,1.04c-.06.27-.07.55-.04.82,0,.06.03.12.06.17,0-.33.04-.65.1-.97.07-.41.15-.85.24-1.26s.19-.79.28-1.1c.04-.17.09-.33.16-.48.15.13.25.31.3.51.01.16,0,.32-.05.47-.05.21-.11.44-.18.68s-.15.49-.22.74-.13.47-.18.63c.2-.53.41-1.05.63-1.55.19-.46.42-.91.67-1.33.21-.35.45-.68.72-.97.21-.23.46-.4.74-.48.35-.08.71,0,1.02.2.31.19.53.52.6.92.02.42-.02.85-.11,1.26l-.36,2.17c-.14.79-.26,1.59-.36,2.39-.09.66-.1,1.33-.02,1.99.3-.34.54-.74.72-1.18.2-.48.39-.96.57-1.47s.34-.98.49-1.44c.13-.4.29-.79.49-1.15"/>
    <path id="Path_26543" data-name="Path 26543" class="cls-1" d="m306.74,182.71c-.17.65-.32,1.25-.47,1.79-.15.54-.3,1.06-.45,1.56.47-1.21.81-2.48,1.03-3.78l-.11.43Zm.72-1.67c-.33,1.4-.67,2.69-1.02,3.85s-.72,2.24-1.12,3.22c1.07-2.19,1.8-4.59,2.15-7.07m-4.93,11.46c.92-.71,1.94-1.24,3.01-1.58-.14.02-.29.06-.43.1l-.4.13c-.83.19-1.59.66-2.19,1.35m-.74-12.65c.01.46.07.92.16,1.38.18.75.48,1.16.93,1.23-.5-.4-.83-1.01-.93-1.69-.03-.14-.07-.28-.1-.43-.04-.16-.06-.32-.06-.48m5.72,8.85c.16.24.31.48.44.75.15.27.26.57.34.87.05.19.03.3-.05.33-.21.05-.42.06-.63.04-.32,0-.64.04-.95.14-.66.22-1.31.49-1.94.82-.72.36-1.43.77-2.11,1.2l-.07.05-.1-.06c-.29-.16-.55-.39-.77-.66-.23-.28-.39-.63-.47-1-.03-.12-.05-.24-.06-.36l.11-.32c.35-.14.67-.39.9-.72.36-.46.7-.95,1.01-1.46.36-.61.69-1.23.99-1.88.32-.69.62-1.37.88-2.05.25-.63.47-1.28.66-1.94.16-.51.28-1.03.36-1.56.08-.59.07-1.2-.05-1.78-.05-.34-.22-.65-.48-.84-.22-.13-.48-.16-.72-.09-.21.07-.41.19-.58.35-.19.17-.35.39-.48.63-.13.25-.23.53-.28.82-.06.3-.05.61.03.9.04.19.11.37.19.54.1.2.23.39.38.54l.25.27c-.25.27-.55.46-.87.58-.37.13-.77.05-1.07-.21-.34-.31-.57-.74-.67-1.23-.14-.6-.18-1.23-.1-1.85.07-.59.22-1.16.45-1.7.22-.5.51-.95.88-1.32.34-.35.74-.61,1.18-.75.43-.15.89-.18,1.34-.09.37.08.72.26,1.01.52.28.25.53.56.72.92.18.33.32.7.41,1.08.21.9.28,1.83.2,2.75-.08.95-.23,1.89-.47,2.81-.23.91-.52,1.8-.86,2.66-.34.86-.66,1.63-.96,2.32.07-.02.13-.05.2-.08.06-.03.13-.05.19-.08.27-.08.54-.13.82-.14.26-.01.51.05.74.19l.08.1h-.02Z"/>
    <path id="Path_26544" data-name="Path 26544" class="cls-1" d="m314.5,187.02c.33-.8.55-1.64.68-2.51.12-1.03.09-2.08-.07-3.11.08,1,.05,2.01-.07,3-.13.89-.3,1.76-.54,2.62m-1.58.64c.18.06.36.06.54,0,.52-.29.89-.85.97-1.51.23-.96.35-1.94.36-2.93.02-1.16-.03-2.32-.16-3.47-.1-1.06-.3-2.1-.59-3.12-.15-.62-.41-1.2-.76-1.71-.23-.33-.62-.46-.97-.3-.34.15-.61.44-.75.82-.22.49-.37,1.02-.45,1.56-.11.67-.18,1.36-.19,2.05-.01.77,0,1.53.06,2.3.06.77.14,1.53.26,2.26.1.67.24,1.33.43,1.98.14.51.33.99.58,1.44.15.31.39.54.68.67m-3.58-7.61c-.01-2.04.45-4.04,1.34-5.81-1.14,1.64-1.62,3.74-1.34,5.81m3.01-7.05c.84-.08,1.65.31,2.19,1.05.66.86,1.16,1.88,1.46,2.97.34,1.18.55,2.4.63,3.63.09,1.25.06,2.5-.1,3.74-.13,1.09-.43,2.15-.88,3.13-.34.81-.94,1.44-1.68,1.75-.46.19-.96.21-1.43.06-.47-.16-.89-.44-1.25-.82-.41-.44-.75-.95-1.02-1.51-.32-.63-.58-1.3-.78-1.99-.33-1.15-.54-2.34-.63-3.54-.1-1.2-.07-2.4.09-3.59.13-1.05.43-2.06.88-2.98.38-.81,1.01-1.42,1.76-1.72.12-.05.24-.08.36-.11.13-.03.26-.05.39-.06"/>
    <path id="Path_26545" data-name="Path 26545" class="cls-1" d="m323.25,183.15c.26-.83.42-1.7.47-2.57.04-1.04-.07-2.08-.32-3.09.16.99.22,2,.18,3-.05.89-.16,1.78-.33,2.66m-1.52.8c.18.03.37.01.54-.07.5-.34.81-.94.84-1.6.14-.98.18-1.97.11-2.96-.07-1.16-.22-2.31-.44-3.44-.19-1.04-.47-2.06-.83-3.04-.2-.61-.51-1.16-.89-1.64-.26-.31-.66-.39-.99-.2-.32.18-.57.5-.68.89-.17.51-.28,1.05-.32,1.6-.06.68-.06,1.37-.02,2.05.05.76.13,1.52.25,2.28.11.75.26,1.5.44,2.23.16.66.35,1.3.59,1.92.18.49.41.95.7,1.37.17.28.42.49.72.59m-4.19-7.17c-.17-2.03.12-4.07.87-5.93-1,1.75-1.32,3.9-.87,5.93m2.43-7.34c.83-.16,1.67.14,2.27.82.73.79,1.3,1.75,1.69,2.81.43,1.14.74,2.33.92,3.55.19,1.23.26,2.49.2,3.74-.05,1.1-.26,2.18-.62,3.2-.27.85-.82,1.53-1.53,1.92-.44.24-.95.32-1.43.21-.48-.11-.93-.35-1.31-.7-.44-.39-.83-.86-1.14-1.4-.36-.6-.68-1.23-.93-1.9-.42-1.11-.73-2.27-.92-3.46-.19-1.18-.26-2.39-.2-3.59.05-1.06.26-2.09.63-3.06.31-.84.89-1.52,1.62-1.9.12-.06.24-.11.36-.15.13-.04.25-.07.38-.1"/>
    <path id="Path_26546" data-name="Path 26546" class="cls-1" d="m328.46,178.72c.72-.99,1.12-2.23,1.12-3.52-.14,1.25-.52,2.46-1.12,3.52m-.69.69c1.13-1.5,1.74-3.42,1.69-5.4-.15,1.94-.73,3.8-1.69,5.4m-1.61-13.92c.73-.37,1.55-.46,2.33-.25-.34-.23-.74-.33-1.13-.27-.43.09-.83.27-1.2.53m2.56-.2c.07.1.14.2.19.32.07.15.12.31.15.47.04.21.08.43.1.64.02.2.02.4,0,.6,0,.14-.06.28-.16.36-.08.05-.17-.04-.28-.27-.11-.25-.36-.38-.59-.3-.28.07-.56.19-.8.36-.18.11-.34.24-.51.37-.13.1-.26.22-.38.35l.46,3.41c.29-.16.6-.31.9-.44.34-.14.69-.21,1.05-.22.35,0,.7.09,1.02.26.36.22.65.55.84.97.3.63.46,1.33.46,2.05.02.81-.03,1.61-.16,2.41-.12.77-.3,1.53-.54,2.27-.18.57-.39,1.11-.65,1.64-.17.3-.36.58-.58.84-.2.26-.44.47-.7.65-.41.28-.89.36-1.35.23-.6-.26-1.08-.79-1.34-1.47l.16-.38c.21.04.43-.01.6-.15.42-.33.76-.77,1.01-1.28.37-.67.69-1.38.96-2.11.27-.7.47-1.43.62-2.18.14-.48.13-1-.03-1.48-.09-.19-.29-.23-.57-.11-.29.12-.56.27-.83.44-.16.11-.3.2-.42.29l-.21.16-.1.03c-.3,0-.61-.04-.91-.1-.31-.06-.6-.21-.84-.45l-.08-.09c-.12-.32-.21-.67-.26-1.02-.09-.53-.19-1.09-.27-1.7s-.16-1.19-.23-1.73-.11-.9-.14-1.09c0-.11-.03-.2-.04-.29s-.03-.18-.04-.29c.01-.15.06-.28.14-.4.12-.2.26-.39.4-.56.19-.22.39-.43.6-.63.23-.22.48-.42.74-.59.42-.28.89-.45,1.38-.5.48-.04.95.21,1.22.67"/>
    <path id="Path_26547" data-name="Path 26547" class="cls-1" d="m364.68,152.09c-1.41,3.78-3.21,7.36-5.34,10.67l-.67.92c.43-.69.55-.9,1.07-1.86.64-1.23,1.33-2.65,2.09-4.27s1.5-3.31,2.22-5.03c.56-1.28,1.04-2.6,1.43-3.95.08-.23.2-.61.36-1.13s.31-1.02.48-1.59c.16-.68.36-1.17.68-2.43-.44,2.99-1.21,5.91-2.31,8.67m-131.08,69.51c-.99.54-2.08,1.13-3.28,1.77s-1.79.96-2.93,1.62-1.99,1.2-3.42,2.17c1.2-1.16,2.52-2.13,3.93-2.89,1.79-1.07,2.03-1.23,3.43-1.92,1.41-.77,2.87-1.39,4.37-1.85-.42.21-1.12.59-2.11,1.12m-87.12,83.97c4.53-9.02,9.75-17.57,15.59-25.55,6.88-9.2,15.74-18.67,25.82-29.97-15.3,16.98-29.16,35.56-41.41,55.52m222.53-179.44c-1.04-8.71-9.1,1.01-7.82.23.84-.51,1.04,1.2,1.17,3.32,1.31,21.53-10.21,40.11-25.28,51.58-17.31,13.14-38.15,17.06-58.07,21.45-18.85,3.71-37.2,10.22-54.59,19.35-16.13,8.88-31.14,20.23-44.6,33.73-15.16,15.47-28.23,33.42-38.79,53.27-4.81,8.88,14.65,3.97,20.48-5.38,20.92-33.56,35.86-58.71,66.7-77.17,16.56-9.84,34.35-16.68,52.74-20.29,19.89-4.37,44.92-8.96,61.98-22.37,16.15-12.69,29.12-32.29,26.08-57.72"/>
  </g>
</svg>