<svg xmlns="http://www.w3.org/2000/svg" width="83.672" height="74.91" viewBox="0 0 83.672 74.91">
  <g id="Group_3098" data-name="Group 3098" transform="translate(-471.65 -1671.604)">
    <g id="Group_2700" data-name="Group 2700" transform="translate(258.886 1682.094)">
      <g id="Group_3097" data-name="Group 3097" transform="translate(-12.322)">
        <path id="Path_25862" data-name="Path 25862" d="M1371.5,5043.15l29.964,37.456L1371.5,5118.06h80.9v-74.91Z" transform="translate(-1143.645 -5053.641)" fill="#e3e3e3"/>
        <path id="Path_25863" data-name="Path 25863" d="M1374.493,5043.15h-3l29.964,37.456L1371.5,5118.06h3l29.964-37.454Z" transform="translate(-1146.411 -5053.641)" fill="#e3051b"/>
        <path id="Path_25864" data-name="Path 25864" d="M1523.225,5120.417h-10.113c0-1.107,1.686-2.248,1.686-4.494,0-1.686-1.317-2.248-2.809-2.248-.492,0-1.388,2.036-1.581,2.439-.211.388-.421.774-.65,1.141a18.516,18.516,0,0,1-1.965,2.546c-1.125,1.281-2.37,2.862-4.231,2.862H1503V5133.9h.562c3.072,0,6.074,2.249,9.481,2.249,1.967,0,3.319-.826,3.319-2.933a6.117,6.117,0,0,0-.089-.984,2.616,2.616,0,0,0,1.142-2.211,2.444,2.444,0,0,0-.317-1.212,2.79,2.79,0,0,0,.931-2.089,3.174,3.174,0,0,0-.614-1.809h5.811a2.287,2.287,0,0,0,2.248-2.246,2.324,2.324,0,0,0-2.248-2.248m-23.6,11.236a1.124,1.124,0,1,0,1.124,1.125,1.131,1.131,0,0,0-1.124-1.125m23.6-4.494h-2.968a4.948,4.948,0,0,1-.649,2.088,5.579,5.579,0,0,1,.052.754,5.131,5.131,0,0,1-1.053,3.127c.034,3.317-2.23,5.266-5.479,5.266a16.47,16.47,0,0,1-5.652-1.211,14.371,14.371,0,0,0-3.916-1.035H1498.5a2.241,2.241,0,0,1-2.248-2.249v-11.236a2.241,2.241,0,0,1,2.248-2.248h5.056c.842,0,2.035-1.51,2.546-2.088a18.532,18.532,0,0,0,1.755-2.266c1.019-1.634,1.773-4.636,4.126-4.636,2.791,0,5.057,1.529,5.057,4.5a6.51,6.51,0,0,1-.387,2.247h6.566a4.495,4.495,0,0,1,0,8.99" transform="translate(-1227.339 -5099.444)"/>
      </g>
    </g>
  </g>
</svg>
