<svg xmlns="http://www.w3.org/2000/svg" width="85.85" height="74.91" viewBox="0 0 85.85 74.91">
  <g id="Group_3098" data-name="Group 3098" transform="translate(-1086.933 -1446.539)">
    <g id="Group_2819" data-name="Group 2819" transform="translate(-240.606 -119)">
      <g id="Group_2818" data-name="Group 2818" transform="translate(1027.713 1575.851)">
        <g id="Group_3097" data-name="Group 3097">
          <path id="Path_26022" data-name="Path 26022" d="M5463.16,2569.86l27.189,37.455-27.189,37.455h85.85v-74.91Z" transform="translate(-5163.334 -2580.172)" fill="#ffd101"/>
          <path id="Path_26023" data-name="Path 26023" d="M5465.882,2569.86h-2.72l27.189,37.455-27.189,37.455h2.72l27.188-37.455Z" transform="translate(-5163.335 -2580.172)" fill="#e3051b"/>
        </g>
      </g>
      <path id="Path_26368" data-name="Path 26368" d="M2315.515,1208.148H2303.67c0-1.3,1.974-2.633,1.974-5.266,0-1.974-1.541-2.631-3.29-2.631-.577,0-1.626,2.385-1.852,2.856-.246.453-.493.906-.76,1.338a21.855,21.855,0,0,1-2.3,2.981c-1.315,1.5-2.776,3.353-4.956,3.353h-.659v13.163h.659c3.6,0,7.115,2.631,11.1,2.631,2.3,0,3.886-.967,3.886-3.434a6.957,6.957,0,0,0-.1-1.152,3.061,3.061,0,0,0,1.338-2.591,2.874,2.874,0,0,0-.371-1.42,3.266,3.266,0,0,0,1.091-2.447,3.708,3.708,0,0,0-.72-2.117h6.806a2.679,2.679,0,0,0,2.633-2.633,2.72,2.72,0,0,0-2.633-2.631Zm-27.64,13.162a1.316,1.316,0,1,0,1.316,1.315A1.325,1.325,0,0,0,2287.875,1221.31Zm27.64-5.264h-3.476a5.787,5.787,0,0,1-.76,2.446,6.5,6.5,0,0,1,.063.884,6,6,0,0,1-1.235,3.661c.041,3.887-2.612,6.17-6.416,6.17a19.264,19.264,0,0,1-6.622-1.42,16.791,16.791,0,0,0-4.586-1.213h-5.923a2.626,2.626,0,0,1-2.633-2.631v-13.163a2.626,2.626,0,0,1,2.633-2.631h5.923c.988,0,2.385-1.768,2.981-2.448a21.7,21.7,0,0,0,2.058-2.654c1.192-1.913,2.075-5.428,4.832-5.428,3.271,0,5.921,1.788,5.921,5.264a7.621,7.621,0,0,1-.451,2.633h7.691a5.265,5.265,0,1,1,0,10.53Z" transform="translate(-922.175 387.137)"/>
    </g>
  </g>
</svg>
